<?xml version="1.0" encoding="UTF-8"?>
<!DOCTYPE svg PUBLIC "-//W3C//DTD SVG 1.1//EN" "http://www.w3.org/Graphics/SVG/1.1/DTD/svg11.dtd">
<!-- Creator: CorelDRAW 2021 (64-Bit) -->
<svg xmlns="http://www.w3.org/2000/svg" xml:space="preserve" width="2717px" height="536px" version="1.1" style="shape-rendering:geometricPrecision; text-rendering:geometricPrecision; image-rendering:optimizeQuality; fill-rule:evenodd; clip-rule:evenodd"
viewBox="0 0 7003.99 1382.72"
 xmlns:xlink="http://www.w3.org/1999/xlink"
 xmlns:xodm="http://www.corel.com/coreldraw/odm/2003">
 <defs>
  <style type="text/css">
   <![CDATA[
    .fil0 {fill:black;fill-rule:nonzero}
   ]]>
  </style>
 </defs>
 <g id="Layer_x0020_1">
  <metadata id="CorelCorpID_0Corel-Layer"/>
  <g id="_2239453429584">
   <path class="fil0" d="M1171.08 286.04c3.36,5.72 2.58,13.9 1.41,21.04 -2.08,1.35 -7.38,2.4 -9.12,0 -1.76,-4.26 1.84,-5.69 3.54,-8.4 -0.1,-5.44 -2.77,-12.88 4.17,-12.63l0 -0.01z"/>
   <path class="fil0" d="M1222.32 299.37c0.58,1.68 1.65,3.01 1.46,5.59 -2.82,1.99 -7.67,0.92 -10.59,-0.7 -2.96,-6.65 4.85,-6.12 9.13,-4.88l0 -0.01z"/>
   <path class="fil0" d="M1260.88 436.19c-2.18,1.77 -2.82,1.94 -6.32,1.43 -7.42,-8.06 7.14,-12.19 6.32,-1.43z"/>
   <path class="fil0" d="M1360.5 701.42c0.82,3.56 2.81,14.49 -2.78,14.05 -0.82,-2.24 -1.95,-4.23 -2.08,-7.05 1.21,-2.67 3.83,-4.13 4.86,-7z"/>
   <path class="fil0" d="M908.68 118.31c2.18,0.38 1.95,3.19 2.77,4.89 3.06,-2.36 4.38,-3.32 6.37,0.72 4.3,-1.45 8.44,0.68 11.88,2.09 6.32,-4.66 16.04,5.47 23.84,3.55 2.34,-0.65 0.98,2.29 2.83,2.07 7.77,-6.08 11.95,5.19 21.7,3.51 3.35,0.88 4.33,4.11 7.1,5.61 3.16,-1.07 5,-3.37 9.82,-2.8 0.33,5.93 5.62,6.95 9.07,9.82 2.62,-0.8 2.91,-4.14 4.95,-5.59 3.64,0.1 3.99,3.53 8.4,2.8 1.51,10.61 8.99,15.29 16.23,20.31 4.71,-0.43 2.53,-6.18 3.35,-9.1 8.44,4.35 15.29,6.51 23.26,10.54 3.39,0.13 2.47,-4.07 5.59,-4.23 9.32,1.68 6.84,15.13 21.07,11.9 2.09,3.99 4.52,7.62 5.59,12.65 0.33,2.92 -4.03,1.12 -4.23,3.52 2.91,8.55 13.02,9.88 17.58,16.83 2.24,0.14 2.92,-1.23 5.63,-0.66 0.25,5.68 3.73,9.32 7.73,12.6 9.26,7.92 12.38,18.53 23.06,11.96 2.68,1.04 5.3,2.2 9.13,2.09 2.24,3.69 4.76,6.94 7.04,10.53 11.61,0.75 13.85,11 19.67,17.55 1.7,13.73 10.44,20.43 14.67,31.55 1.79,0.88 3.49,1.76 5.68,2.11 0.54,1.96 2.24,2.87 2.04,5.58 13.16,6.61 15.25,24.04 30.94,28.1 -2.78,14.31 10.58,17.59 13.3,28.78 4.32,2.94 9.72,4.71 11.27,10.49 3.21,-0.68 4.23,0.94 6.32,1.44 0.88,4.59 0.19,6.96 0,11.91 4.71,2.9 7.67,7.64 15.4,5.61 -2.87,14.09 4.42,27.47 16.17,28.75 -0.69,10.25 4.32,14.86 4.86,23.86 1.01,2.06 1.68,4.42 4.21,4.94 -1.34,5.29 2.58,7.22 4.19,10.5 6.07,11.63 10.83,26.37 16.85,37.93 -0.87,0.67 -2.09,1.14 -2.77,2.09 -5.97,-2.09 -8.36,-4.05 -16.13,-3.53 -2.03,-2.89 -5.49,-4.31 -7.81,-6.96 -1.32,-9.62 -6.17,-15.79 -10.44,-22.48 -0.64,-10.04 2.71,-16.48 -1.46,-23.15 -4.76,-7.71 -19.19,-4.74 -21.03,-13.33 -0.92,-4.67 3.39,-7 2.18,-13.32 -8.5,-9 -22.19,-2.14 -32.97,-4.92 -4.57,0.85 -4.04,6.87 -6.31,9.78 4.02,6.79 9.17,12.32 14.66,17.53 2.81,-0.6 3.59,-0.6 6.31,0 -0.29,8.24 3.07,12.92 7.77,16.17 2.93,-0.09 3.31,-2.71 6.32,-2.81 1.99,2.2 5.14,3.31 4.23,8.43 -2.58,0.95 -5.31,1.73 -6.41,4.17 0,3.57 1.6,5.49 2.86,7.73 3.2,0.89 2.72,-1.89 5.54,-1.38 4.95,3.06 2.08,13.82 7.76,16.14 1.08,8.24 -1.51,12.73 0,19.63 1.42,6.57 8.16,9.22 9.09,14.08 0.96,4.71 -1.51,7.17 0.73,11.91 2.56,5.37 6.89,11.4 11.17,14.05 -1.17,7.01 1.94,9.85 4.32,13.3 -0.11,3.65 -4.86,2.68 -5.64,5.59 3.94,9.85 1.21,37.38 14.03,37.2 4.57,0 6.22,-5.75 11.9,-6.29 0.4,-4.17 -0.77,-6.29 0,-9.13 2.97,-1.22 5.88,-2.55 7.77,-4.9 0.19,-6.53 -1.02,-11.7 -4.96,-14.01 3.26,-12.89 -7.04,-19.26 -16.8,-11.96 -0.67,-1.77 -0.96,-3.76 -0.77,-6.3 3.25,-3.41 9.03,-4.16 11.31,-8.43 3.29,-16.73 -5.29,-19.38 -11.31,-26.67 1.7,-3.32 5.34,-5.79 9.9,-4.24 4.09,-1.42 4.62,-6.5 11.86,-4.92 1.93,2.8 3.35,6.08 2.85,11.27 4.57,6.95 10.6,12.37 11.96,22.48 1.07,2.08 4.8,1.67 5.49,4.2 -7.23,17.96 13.49,18.42 9.9,37.17 3.88,3.86 2.33,7.87 2.87,15.44 0.49,9.01 4.57,18.92 0,28.76 4.96,18.62 -4.8,42.8 4.17,55.43 0.5,9.38 -0.82,16.96 -4.17,22.44 -1.7,-3.78 -0.78,-10 -2.87,-13.31 -6.35,0.15 -5.88,7.19 -9.13,10.49 2.05,11.8 -6.45,13.21 -7.08,22.49 -1.61,1.31 -3.35,-1.85 -5.59,-2.09 -6.21,2.82 -7.86,11.71 -4.91,18.27 5.83,-0.35 3.06,-9.23 10.5,-7.77 1.89,3.83 2.95,8.3 7.08,9.85 0.69,-0.53 1.61,-0.78 2.83,-0.73 3.24,-2.33 1.89,-9.37 8.39,-8.4 1.7,15.64 -10.34,26.43 -6.99,43.52 0.38,2.03 2.37,3.5 2.81,5.62 1.26,6.37 -4.42,11.37 -2.81,18.94 -5.97,4.08 -4.08,16.04 -9.82,20.31 -3.1,-2.47 -1.11,-10.05 -4.95,-11.94 -5.78,-0.64 -5.19,5.05 -7.67,7.76 -4.08,-0.87 -4.61,-5.2 -8.39,-6.37 -2.24,-0.48 -1.41,1.9 -3.56,1.46 0.64,9.09 -9.85,14.91 -3.48,23.13 4.07,1.21 3.19,-2.39 6.26,-2.1 3.35,0.15 1.74,5.34 2.13,8.46 -1.69,0.78 -2.32,2.77 -4.91,2.77 -0.76,9.26 -1.54,18.6 -4.95,25.3 0.84,5.84 6.46,3 9.85,3.5 -0.82,9.8 2.29,15.39 0,23.12 -1.68,0.57 -2.6,2.12 -5.57,1.45 -2.49,3.45 -1.99,8.15 -1.36,13.3 -6.37,3.22 -19.09,-4.95 -22.69,-6.54 0,-1.8 -1.9,-15.12 -0.92,-15.98 -0.67,-1.76 -5.53,-6.22 -5.69,-8.4 0.06,-17.64 7.35,-12.72 1.46,-30.46 -0.33,-4.27 8.01,-19.04 7.34,-23.5 2.09,-2.05 6.02,-1.99 7.82,-4.28 -0.25,-5.15 -0.35,-10.39 -3.49,-12.61 -4.82,1.35 -11.08,13.49 -11.96,18.75 -5.97,-5.93 -4.46,-19.54 -11.5,-24.49 0,-3.3 5.97,-16.23 5.97,-19.48 -0.25,-3.3 -9.34,6.31 -10.01,3.56 0.54,-6.18 -2.18,-2.72 -4.47,-6.03 -1.65,-10.99 7.09,-30.85 10.16,-38.27 -4.61,-5.93 2.91,-20.98 -5.54,-23.85 -6.51,1.61 -3.36,9.61 -2.24,14.72 -2.18,2.24 -9.18,20.11 -10.35,23.5 -6.6,-1.55 -8.25,-10.87 -14.03,-13.21 -2.29,-11.21 -8.16,-14.27 -10.69,-25.29 -0.82,-1.99 -4.9,-7.14 -5.69,-9.09 -4.22,-13.65 -5.28,3.54 -11.27,-8.25 -0.92,-0.97 -7.46,-18.81 -8.34,-19.73 -2.19,-7.38 -2.28,4.23 -6.66,-0.92 -1.65,0.38 -0.14,-6.95 -2.81,-7.58 -0.29,-2.52 -11.71,-1.41 -7.53,-9.27 -2.87,-4.96 1.02,4.8 0,-1.88 -4.51,-3.94 -8.6,-8.32 -11.27,-14.1 -4.07,-4.29 -12.82,5.33 -14.08,-1.89 -8.01,-3.13 -4.03,-13.84 -12.19,-16.87 0.48,-2.15 -4.32,-3.5 -3.69,-5.66 -5.55,-0.1 -8.84,-21.23 -14.08,-21.57 0.43,-2.08 6.46,9.16 6.54,7.5 -4.9,-3.57 -9.46,-6.48 -15,-9.35 -6.32,-12 -19.14,-13.3 -26.28,-24.42 -6.6,-1.63 -2.95,-7.67 -9.41,-9.38 0.28,-7.79 -9.76,-9.94 -13.11,-14.08 0.04,30.98 -14.43,-41.58 -14.92,-40.16 -1.9,-2.09 -3.35,-4.6 -4.18,-7.72 -1.89,0 -3.73,0 -5.59,0 -0.95,-3.82 -0.19,-7.49 -1.45,-10.54 -1.8,-4.32 -4.22,-4.28 -6.31,-9.09 -2.67,-6.44 -10.78,-8.11 -12.67,-16.14 -8.46,-1.56 -15.6,-4.5 -14.68,-15.44 -0.57,-1.8 -2.87,-1.8 -4.21,-2.81 -2.62,-14.1 -15.79,-20.93 -30.9,-20.37 -3.29,-2.23 -1.7,-5.58 -2.66,-8.42 -4.13,-10.08 -14.72,-12 -22.54,-18.22 -0.35,-12.58 -12.44,-13.31 -16.13,-22.49 -3.54,0.22 -5.59,1.96 -8.44,2.82 -13.84,-7.67 -22.05,-20.98 -41.43,-23.15 -1.51,-8.61 -10.44,-13.3 -19.61,-11.94 -2.34,-2.09 -2.34,-6.53 -5.65,-7.7 -5.62,3.91 -11.36,-1.72 -18.22,0 -7.56,-8.94 -26.11,-1.3 -32.96,-12.63 -3.3,0.27 -5.73,-0.36 -7.73,-1.4 -2.47,3.7 -5.19,6.98 -11.31,6.99 -2.57,-3.1 -4.23,-8.78 -12.58,-6.99 -1.07,0.25 -2.38,2.05 -4.23,2.14 -6.99,0.11 -11.26,-7.63 -15.39,-8.45 -5.68,-1.11 -12.05,1.67 -17.53,0 -3.55,-1.08 -5.2,-3.82 -7.73,-4.26 -6.66,-1.01 -9.72,2.83 -17.53,2.83 -5.39,0 -11.12,-3.82 -16.86,-1.41 -0.92,-2.5 -4.22,-4.11 -2.04,-7.71 -3.21,-2.69 -7.76,0.13 -10.64,0 -3.3,8.58 -12.67,11.15 -23.16,12.63 0.1,-1.19 -0.49,-1.82 -1.31,-2.09 -0.88,-5.21 4.76,-4.14 4.91,-8.43 0.34,-2.18 -1.95,-1.86 -2.19,-3.5 -2.38,3.15 -6.74,1.64 -10.44,0.69 -3.01,-0.19 -3.54,2.06 -5.63,2.81 -14.19,-4.14 -26.51,8.07 -36.52,9.84 -4.32,0.73 -9.52,-2.23 -14.77,-1.41 -4.71,0.73 -8.59,5.88 -11.17,9.13 -8.93,2.04 -18.26,3.74 -24.62,8.37 -9.96,-1.53 -19.72,-1.82 -24.52,4.2 -2.63,-2.47 -3.4,-6.84 -7.68,-7.67 -1.41,0.02 -0.87,1.89 -2.86,1.39 -0.49,5.9 0.77,10 0.72,15.44 -7.53,3.77 -13.83,8.61 -15.39,18.24 -9.96,-5.56 -21.03,-3.03 -22.48,9.83 -3.94,-0.89 -7.29,-0.72 -10.5,0.69 -0.63,1.77 -0.97,3.76 -0.73,6.32 2.48,1.48 4.32,3.61 7.05,4.92 0,1.65 0,3.3 0,4.91 -5.63,2.23 -12.14,4.7 -11.95,9.81 0.09,5.17 8.65,7.4 9.81,12.65 3.25,-1.47 7.91,-1.41 9.18,-4.94 -1.46,-8.79 5.39,-9.42 6.27,-17.53 6.36,1.56 8.74,-3.3 13.35,-1.39 9.18,-5.34 1.32,-12.51 0,-20.34 1.56,0.48 3.5,0.63 4.81,1.41 7.82,-9.82 19.28,-19.6 33.75,-20.38 9.96,-6.46 23.31,-9.49 36.42,-12.62 0,1.15 0.54,1.81 1.46,2.1 0.58,6.18 -4.08,7.13 -6.31,10.52 -6.51,-0.84 -9.86,1.38 -13.36,3.5 -5.29,-3.69 -9.8,0.92 -16.85,2.12 -2.96,0.5 -6.12,-0.52 -7.72,0 -5.93,2.11 -8.35,10.07 -11.9,13.35 -6.07,-0.92 -6.94,3.35 -9.13,6.29 1.36,1.29 2.82,2.3 5.64,2.11 2.91,-0.1 2.71,-3.38 4.89,-4.2 4.04,1.11 5.98,4.29 10.5,4.89 3.69,-1.71 4.61,-6.28 7.04,-9.1 18.6,-0.05 29.67,-7.79 44.92,-10.51 3.69,-3.31 6.12,-7.9 12.63,-8.46 1.46,2.97 2.28,6.56 4.91,8.46 4.41,-2.16 8.3,-4.78 9.86,-9.83 15.93,0.31 31.13,-3.24 45.6,-0.72 3.11,-0.19 3.64,-2.84 6.36,-3.52 4.95,3.65 15.2,1.78 20.93,0 5.78,4.28 15.74,1 23.85,1.41 0.88,1.53 1.89,2.87 1.45,5.61 -10,4.99 -20.54,-0.15 -32.34,0.7 -3.5,0.25 -7.24,2.49 -11.17,2.82 -5.1,0.42 -10.34,-1.05 -15.45,0 -2.13,0.42 -3.54,2.26 -5.53,2.82 -3.83,1.02 -9.22,-0.43 -13.35,0 -2.38,0.22 -3.16,1.5 -4.96,1.4 -2.71,-0.16 -6.36,-2.69 -9.08,-2.12 -6.12,1.27 -8.94,11.47 -16.17,9.8 -6.41,3.09 1.26,16.15 -5.54,18.28 -3.69,0.4 -4.37,-7.77 -10.64,-7.04 -3.93,3.56 -10.24,4.73 -9.08,13.34 14.04,5.41 -2.09,17.69 -11.22,18.96 -1.94,3.18 -1.41,8.94 -1.45,14.02 -4.28,3.85 -13.07,3.35 -18.16,6.34 1.98,-11.02 13.5,-18.85 10.48,-30.22 -9.17,-0.1 -14.37,1.53 -20.3,5.66 0,2.06 0,4.2 0,6.27 1.75,2.09 4.67,-1.22 6.32,0.73 -0.1,0.79 0.09,1.26 0.68,1.37 -0.19,5.59 -7.28,4.32 -7,10.54 0.16,4.45 5.79,4.96 5.59,9.13 -0.34,6.37 -10.44,7.37 -13.31,0 3.06,-0.1 8.02,-5.02 4.13,-9.83 -6.51,0.76 -7.48,6.97 -13.99,7.71 -1.02,2.31 -0.64,5.91 -0.68,9.12 -1.41,0 -2.87,0 -4.27,0 -0.98,-6.16 1.98,-8.33 1.4,-14.02 4.47,-1.33 24.33,-15.53 12.68,-19.64 -7.48,-2.65 -16.76,8.72 -20.4,9.79 -6.41,-6.19 6.75,-9.75 6.32,-16.83 6.89,-1.09 8.44,-7.42 13.4,-10.54 2.48,-0.19 2.53,2.14 4.85,2.14 4.62,0.17 7.04,-1.82 9.18,-4.22 11.76,-0.38 21.9,-2.38 28.03,-8.44 0.49,-2.9 2.14,-9.6 -1.41,-10.48 -4.42,1.96 -13.7,4.93 -19.62,7.73 -12.24,-3.02 -16.56,10.14 -29.48,4.9 -4.66,2.37 -10.15,3.91 -11.27,9.81 -4.94,-0.15 -4.76,4.52 -6.26,9.83 -1.26,4.42 -3.84,8.55 -3.55,13.3 0.2,3.89 3.93,7.17 1.46,10.55 -7.48,1.23 -13.36,3.93 -13.31,12.68 -8.35,7.38 -19.57,11.79 -27.39,19.62 -3.64,7.55 2.24,10.95 4.91,16.14 -5.15,3.72 -4.52,13.29 -9.86,16.8 -2.43,-0.35 -2.48,-3.08 -4.9,-3.46 -5.2,1.36 -7.67,6.74 -5.59,13.33 -7.18,1.21 -12.34,4.55 -15.49,9.81 -4.86,-0.9 -4.52,-7.11 -7,-10.52 -3.01,-1.21 -8.26,-0.19 -10.54,-2.1 -2.23,2.35 -1.89,7.36 -5.54,8.37 0.54,-5.47 -1.06,-13.2 4.18,-13.99 0.29,-10.22 3.79,-17.26 9.14,-22.48 -0.63,-4.8 0.48,-7.87 2.04,-10.52 1.79,-0.08 2.23,1.11 3.54,1.4 6.7,-6.89 -0.1,-23.06 7.67,-28.74 4.66,2.37 7.24,6.79 12,9.1 11.75,-7.02 13.79,-25.08 14.03,-40.02 -9.03,-1.04 -8.98,6.54 -7.76,14.03 -2.29,3.29 -9.04,1.9 -11.95,1.42 -1.94,-6.26 5.73,-8.79 4.91,-16.14 5.14,-1.38 7.04,-6.12 8.49,-11.21 2.73,0.06 4.86,0.69 6.31,2.09 3.84,-1.77 9.72,-9.91 3.55,-13.33 -2.28,0.25 -4.27,3.21 -6.36,1.39 -0.77,-9.03 9.71,-12.6 13.35,-19.6 0.73,-10.53 5.49,-16.94 8.4,-25.25 2.14,0.49 1.42,0.49 3.5,0 4.62,-11.71 10.68,-22.04 16.81,-32.32 1.55,-0.49 3.69,-0.61 4.95,-1.43 1.85,-4.19 5.49,-6.62 9.08,-9.09 -0.34,-3.69 1.26,-5.31 0.78,-9.12 3.45,-0.63 4.81,0.34 6.99,-2.09 -0.72,-12.19 10.98,-11.96 12.58,-21.76 1.75,-0.15 2.19,1.09 3.5,1.43 3.88,-8.35 9.57,-14.87 17.58,-18.99 2.67,-9.88 16.08,-9.13 18.94,-18.91 6.12,-3.04 11.07,-7.13 15.39,-11.97 1.75,-0.21 2.72,-1.1 4.96,-0.66 1.07,-5.21 7.14,-5.56 7.67,-11.3 10.15,-0.35 12.92,-8.18 21.08,-10.46 0.29,-3.02 -0.78,-7.36 1.41,-8.43 3.2,-0.41 2.42,3.09 4.91,3.51 3.06,-2.66 5.62,-4.75 9.18,-3.51 3.2,-1.67 5.09,-4.7 6.27,-8.4 8.3,-1.14 13.16,-9.16 20.35,-9.16 1.84,-0.73 2.33,-2.81 3.49,-4.18 5.05,1.09 6.9,-2.89 9.81,0 4.67,-5.26 15.06,-4.59 21.12,-9.83 2.39,1.76 5.98,1.76 8.41,0 5.73,7.6 24.14,-0.63 28.8,7.04 7.77,-1.58 6.07,-18.57 -1.41,-18.99 -0.29,-3.74 -1.21,-6.78 -1.45,-10.54 3.54,0.92 3.34,5.61 6.25,7.02 4.52,1.39 4.72,-3.62 9.19,-0.7 1.99,-0.32 3.21,-1.46 3.5,-3.5 2.23,-0.2 1.5,2.71 3.54,2.79 3.3,-0.87 5.73,-6.36 7.67,-6.3 2.48,0.76 1.46,5.11 4.28,5.65 6.46,0.36 8.45,-3.69 11.16,-7.04 9.57,-0.51 15.79,-3.52 21.77,2.09 3.15,0.36 3.15,-2.47 5.53,-2.82 8.89,2.43 16.66,5.97 23.3,10.56 10.22,-2.63 21.72,2.02 28.72,8.43 7.77,-2.89 11.89,3.15 16.11,5.58 1.77,1.08 4.48,0.47 6.32,1.42 4.92,2.47 7.73,7.48 11.94,9.83 9.72,-2.57 16.13,9.69 25.99,4.93 2.43,0.12 2.62,2.5 4.91,2.8 1.51,-1.13 2.03,-3.07 4.85,-2.8 7.09,5.17 7.92,14.04 18.94,13.99 1.76,1.86 2.58,4.54 4.23,6.36 5.69,-1.12 7.77,3.89 11.94,2.04 2.49,4.42 1.08,12.53 1.42,18.99 2.68,-0.15 5.3,-6.47 7.73,-9.11 3,0 6.06,0 9.12,0 1.46,4.1 3.3,7.85 5.59,11.2 -4.18,7.23 -13.89,8.94 -19.58,14.75 -2.86,0.23 -1.95,-3.21 -4.28,-3.48 -1.4,0.92 -3.29,1.31 -4.9,2.09 -4.95,-4.39 -12.28,-5.34 -18.26,-3.53 -0.05,-5.94 16.62,-12.55 5.63,-21.03 -4.23,4.19 -8.5,8.31 -16.13,9.11 -3.33,-1.34 -4.36,-3.77 -7.75,-4.19 -3.85,-0.54 -7.19,2.93 -11.24,2.75 -3.98,-0.14 -5.87,-4.7 -10.52,-3.47 0.92,-15.29 -21.96,-11.22 -29.39,-20.34 -6.8,2.56 -13.74,-2.62 -18.31,1.41 -1.84,1.62 -2.62,-2.02 -4.9,-2.11 -5.3,5.6 0.19,14.62 0,23.16 8.65,0.85 11.85,-14.57 18.22,-3.57 -0.64,2.39 -1.13,4.88 -2.05,7.07 3.69,4.79 15.73,4.88 20.97,2.08 1.27,2.53 2.39,5.15 4.33,7.05 12.09,-4.52 23.65,5.1 34.34,6.31 0.52,2.43 2.09,3.7 0.73,6.34 3.06,7.11 14.47,5.6 22.39,3.5 1.6,1.91 2.62,4.46 3.59,6.99 7.47,-2.87 10.87,5.56 16.8,1.41 0.96,6.68 7.72,7.67 10.43,12.63 3.26,0.41 3.07,-2.65 6.43,-2.14 3.29,11.87 13.74,16.65 24.57,21.07 1.21,7.32 -5.45,8.87 -2.87,15.47 4.13,4.47 8.88,0.25 11.9,-2.14 4.42,0.52 5.78,4.06 7.72,7.03 7.82,2.59 13.01,7.62 18.31,12.63 7.23,-0.67 10.73,2.24 15.44,4.21 2.62,9.37 3.79,15.66 11.17,19.66 4.08,2.22 9.57,1.49 13.36,4.2 4.95,3.54 7.77,8.56 11.9,11.91 2.43,-0.56 2.66,1.05 4.95,0.7 2.67,-1.26 1.6,-6.23 4.85,-7.04 3.16,0.71 5.68,1.37 7.79,1.44 0.92,-0.66 1.35,-1.85 2.08,-2.8 -4.28,-4.96 -4.91,-11.79 -8.45,-16.84 -1.37,-1.95 -3.64,-1.92 -6.27,-4.19 -6.9,-6 -14.86,-13.47 -23.17,-16.84 -2.91,3.22 -5.58,6.64 -11.94,6.29 -4.23,-6.44 2.81,-8.53 5.62,-11.93 0.39,-2.26 -0.53,-3.28 -0.72,-4.9 -7.92,-5.63 -15.35,-11.83 -21.09,-19.64 -2.18,-0.13 -3.04,-1.58 -5.53,-1.42 -1.7,-2.33 -3.88,-4.08 -4.23,-7.71 -4.12,-0.85 -7.71,-2.15 -8.44,-6.34 -9.67,-1.78 -14.08,-3.72 -23.17,-8.37 -8.02,-4.19 -8.69,-5.93 -14.72,0.7 -2.37,0.09 -2.27,-2.38 -4.23,-2.85 0.06,-3.44 3.21,-5.2 1.42,-8.4 -2.62,-3.25 -11.81,0.05 -15.5,-2.08 -0.54,-2.02 -0.19,-6.07 1.45,-7.76 9.38,2.11 9.86,-4.62 18.28,-3.48 2.27,-0.54 2.08,-3.51 3.54,-4.93 -0.88,-3.15 -4.61,-3.48 -5.64,-6.3 7.73,-4.3 18.8,1.24 25.94,7.7 2.14,1.99 2.87,5.71 4.9,7.7 3.41,3.37 8.4,3.69 9.91,7.73 7.29,-0.81 11.37,4.9 16.02,7.74 1.32,0.76 2.87,0.04 4.19,0.67 5.09,2.24 7.77,8.9 12,11.93 8.82,0.07 10.2,7.63 16.9,9.83 0,7.26 4.99,9.19 11.21,8.43 3.5,4.39 5,10.93 9.76,14.04 1.65,0 3.31,0 4.9,0 11.04,10.3 24.34,18.29 30.21,33.66 -7.42,4.78 -9.76,-5.57 -16.17,-6.27 -2.52,-11.34 -10.58,-17.02 -20.97,-20.37 -4.76,10.67 5.25,17.82 13.26,20.37 0.43,3.73 2.38,6 6.32,6.27 1.11,5.19 1.68,10.97 9.22,9.86 2.76,4.17 4.56,9.39 10.43,10.51 4.32,-4.05 -1.89,-12.05 3.5,-16.12 15.01,6.06 14.28,27.84 30.85,32.24 2.77,10.19 10.14,15.62 13.39,25.25 2.24,1.13 3.02,0.29 5.59,0.03 1.9,5.69 4.08,10.86 9.81,12.63 4.91,0 0.33,-9.5 6.32,-8.4 0.29,-7.29 -2.14,-11.96 -3.5,-17.58 0.09,-1.51 -2.49,-0.29 -3.45,-0.66 -1.89,-6.86 -9.76,-7.62 -12.78,-13.36 0.2,-4.83 5.05,-4.87 7.88,-6.99 1.16,-6.46 -2.77,-7.57 -5.69,-9.84 -2.33,0.25 -4.31,0.72 -5.63,2.11 -4.02,-2.99 -5.83,-8.08 -10.54,-10.52 0,-8.14 7.14,-6.51 6.31,-14.07 -0.73,-7.37 -10.05,-10.8 -15.35,-15.39 -6.16,-12.12 -12.62,-23.94 -23.84,-30.91 -0.44,-2.58 -1.55,-4.6 -2.87,-6.27 -3.54,-1.02 -6.07,-1.58 -9.85,-0.7 -7.96,-15.42 -22.1,-24.73 -33.66,-36.53 -0.92,0.94 -3.01,0.71 -4.95,0.71 -3.45,-6.08 -18.21,-12.47 -22.38,-3.5 -4.09,-3.82 -8.07,-5.61 -7.04,-11.93 0.52,-3.41 5.86,-4.65 4.17,-9.13 -6.03,-1.51 -10.25,-7.48 -17.54,-5.62 -4.27,-6.03 -11.56,-5.17 -18.89,-7.02 -7.42,-1.87 -13.39,-8.33 -17.58,-12.62 -4.56,-0.1 -6.61,-2.71 -9.8,-4.2 -3.35,1.8 -7.68,2.69 -13.35,2.1 0,-4.66 0,-9.37 0,-14.04 -0.79,0.13 -1.23,-0.13 -1.42,-0.68 -3.44,-0.45 -3.88,2.05 -6.26,2.8 -4.76,-6.44 -17.3,-7.48 -27.34,-6.31 -3.41,-2.79 -7.54,-4.68 -9.87,-8.43 -7.47,1.38 -14.12,-3.52 -19.62,-6.32 -11.31,2.02 -14.41,-4.32 -20.39,-7.74 -2.28,0.29 -2.28,2.9 -4.85,2.81 -5.2,0.5 -6.17,-3.18 -8.51,-5.58 -10.33,-2.63 -17.33,-4.71 -25.87,-8.42 0,-1.14 0.33,-2.71 -0.69,-2.83 0.1,-2.02 2.81,-1.28 4.86,-1.37 6.51,5.06 17.05,2.4 21.07,1.37l0.02 0zm-129.09 28.79c1.36,0.29 1.7,1.5 3.4,1.4 1.16,-1.48 -0.15,-5.08 -2,-5.62 -0.33,1.45 -1.79,1.98 -1.4,4.22l0 0zm18.9 8.44c2.28,-1.67 5,-3 5.59,-6.36 -1.18,-1.79 -4.52,-1.45 -7,-2.08 -2.24,2.35 -1.52,7.36 1.41,8.44zm35.78 -1.42c2.97,0.34 5.15,0 4.91,-2.83 -0.87,-1.69 -2.86,-2.23 -4.91,-2.79 0,1.87 0,3.75 0,5.61l0 0.01zm-101.74 15.44c-8.06,-1.51 -13.2,-5.97 -19.67,-9.19 -3.88,4.59 -9.32,11.15 -16.08,10.57 -4.12,-0.34 -6.07,-5.65 -11.26,-4.2 -5.93,8.3 12.73,18.73 18.89,13.33 0.1,-3.85 -0.97,-9.01 2.86,-9.13 3.99,1.14 5.2,5.13 7.73,7.72 10.24,0.19 19.04,2.92 17.53,-9.1zm82.13 6.31c-5.59,-3.89 -14.91,-2.48 -13.35,3.5 1.16,4.39 6.01,1.55 9.06,2.84 4.14,1.65 2.83,5.87 6.37,7.67 10.55,-5.2 19.81,-0.81 30.22,-0.69 1.99,1.61 1.55,5.84 4.84,6.29 3.02,-4.9 6.43,-9.47 6.32,-17.55 -2.28,-1.81 -5.19,-3.01 -8.45,-2.07 -1.8,-0.15 -4.18,-6.05 -4.82,-2.82 -3.19,1.83 1.27,8.74 -2.91,10.54 -6.5,0.59 -8.49,-4.24 -14.65,-2.1 -6.08,-2.11 -7.73,-8.36 -7.05,-15.46 -7.53,-3.27 -2.48,7.47 -5.58,9.84l0 0.01zm-43.51 6.99c5.09,-4.01 16.61,3.71 16.17,-8.45 -5.88,-0.88 -12.63,-0.29 -16.91,-5.58 -4.51,2.76 -4.51,12.13 0.74,14.03l0 0zm-23.22 -8.45c0,1.71 -1.17,2.13 -0.69,4.25 7.88,4.23 9.66,-9.8 0.69,-4.25zm222.44 29.48c0.42,3.14 0.72,6.4 4.32,6.37 1.74,-0.76 2.22,-2.9 2.03,-5.66 -1.7,-0.66 -4.52,-2.29 -6.35,-0.71l0 0zm-133.32 14.08c5.59,3.87 10.34,-2.65 14.08,-4.95 -0.19,-9.99 -15.79,-3.67 -14.08,4.95zm-151.53 3.5c-1.02,2.26 -0.63,5.88 -0.63,9.13 1.75,0.73 3.3,1.67 6.17,1.41 2.48,-1.63 3.69,-10.61 0,-11.96 -1.85,0.32 -3.64,1.04 -5.54,1.42l0 0zm341.81 10.54c2.82,1.92 6.99,2.79 10.43,0.66 -0.38,-6.34 -5.87,-7.73 -9.12,-11.2 -1.94,1.99 -1.26,6.63 -1.31,10.54l0 0zm-372.02 -1.41c5.4,0.47 9.23,-0.67 11.32,-3.52 0,-2.08 -1.84,-2.4 -2.14,-4.2 -8.59,-1.88 -13.89,1.07 -9.18,7.72zm225.3 -0.73c3.46,-1.39 2.19,-7.42 -1.4,-7.71 -2.29,2.15 -2.73,7.05 1.4,7.71zm-204.9 1.44c1.41,-1.16 2.38,-2.92 2.09,-5.67 -1.31,-0.32 -1.21,-1.96 -3.54,-1.38 -1.32,2.01 -2.63,7 1.45,7.05zm155.79 0.7c1.61,0.19 2.87,1.33 4.14,0 0.39,-3.03 -1.81,-3.31 -3.51,-4.2 0.5,2.11 -1.11,2.03 -0.63,4.2zm74.37 4.23c0,-3.53 -4.67,-2.43 -7.05,-3.57 -0.38,3.71 4.81,4.63 7.05,3.57zm-261.05 16.81c-0.73,-3.1 -4.76,-4.58 -9.08,-3.53 -6.41,10.8 11.36,13.76 9.08,3.53zm300.23 -2.85c0.88,4.61 2.83,8.06 5.05,11.28 8.11,0.28 12.15,4.62 16.86,8.43 10.48,-1.38 14.37,7.9 20.24,13.29 7.15,-0.85 9.47,3.16 15.5,3.54 -0.1,-13.04 -9.18,-17.04 -22.48,-16.82 -1.36,-6.19 -8.5,-6.55 -9.86,-12.65 -10.54,0.29 -15.88,-8.33 -25.31,-7.06l0 -0.01zm-326.89 8.41c-12.29,-9.51 -21.61,7.98 -34.38,2.17 -4.28,4.86 -12.2,2.21 -19,4.86 -1.36,5.78 1.17,10.76 2.82,15.48 4.46,1.86 6.61,-1.51 10.54,-2.11 2.72,0.67 3.79,2.86 6.32,3.51 7.77,-0.13 11.74,-13.37 18.25,-13.33 4.62,0.03 4.03,4.35 8.46,6.31 3.54,-0.5 6.07,-1.92 8.35,-3.51 0.97,-5.56 0.34,-9.01 -1.36,-13.37l0 -0.01zm263.08 9.87c3.65,0.38 6.31,-0.32 5.68,-4.23 -1.26,-1.8 -4.46,-1.58 -6.31,-2.77 -0.29,3.87 -0.49,4.06 0.63,7l0 0zm219.71 14.72c2.14,1.33 3.55,3.5 7,3.54 1.21,-1.38 0.48,-4.64 0.63,-7.07 -3.79,0.88 -3.98,-1.97 -6.94,-2.08 -0.44,1.7 -1.02,3.21 -0.69,5.61zm-95.47 5.59c4.12,1.14 4.51,5.85 9.85,5.62 4.87,-7.04 -10.29,-17.82 -9.85,-5.62zm16.17 7.04c0.44,6.07 4.32,8.78 9.82,9.83 1.4,-1.14 1.59,-3.54 1.36,-6.29 -2.87,-1.74 -7.73,-4.71 -11.18,-3.54l0 0zm-63.87 9.13c2.92,-0.59 3.5,-3.54 3.5,-7.02 -4.27,-5.45 -8.25,5.47 -3.5,7.02zm70.86 6.34c-5.92,10.21 6.03,19.27 15.45,21.03 -2.77,-9.37 -6.17,-18.17 -15.45,-21.03zm-14.03 26.6c0,-2.76 -0.63,-4.93 -3.5,-4.87 -2.03,2.31 1.89,6.32 3.5,4.87zm-42.84 16.19c3.54,0.38 2.38,-5.69 0,-5.62 -0.43,1.61 -1.4,4.26 0,5.62zm202.08 0c1.71,-2.23 0.3,-6.06 -2.77,-5.62 -0.57,3.31 0.44,5.19 2.77,5.62zm-101.01 3.51c0.09,-1.29 2.37,-0.45 2.81,-1.42 -0.19,-3.29 -0.48,-6.51 -4.27,-6.3 0.44,2.55 -1.03,7.21 1.46,7.72zm54.06 -1.41c1.4,0 0.86,1.89 2.85,1.41 0.53,-0.8 0.88,-1.89 0.68,-3.51 -0.97,0 -1.55,-0.35 -2.14,-0.72 0.54,1.92 -1.4,1.45 -1.4,2.82l0.01 0zm-37.26 19.63c1.7,-0.18 1.3,-2.43 3.59,-2.08 0,-2.37 0,-4.68 0,-7.01 -7.14,-1.58 -10.83,-6.55 -15.44,-10.55 -6.32,9.7 4.08,17.44 11.85,19.63l0 0.01zm87.03 -3.48c1.74,0.22 2.68,1.08 5.01,0.67 0.86,-2.75 2.37,-5.02 2.03,-9.13 -5.11,-4.63 -8.5,2.1 -7.04,8.47l0 -0.01zm-31.57 6.99c1.75,-0.26 1.56,1.29 3.5,0.69 1.99,-2.82 2.47,-10.3 -2.03,-10.49 -2.34,1.16 -2.97,7.04 -1.47,9.8zm16.23 25.25c4.22,5.18 7.38,10.14 13.94,9.85 -0.88,-12.88 -7.98,-19.6 -13.32,-28.06 -9.18,6.33 -7.33,10.25 -0.63,18.21l0.01 0zm-44.97 -9.81c7.76,2.55 7.86,12.78 15.4,15.43 0,-2.77 0,-5.61 0,-8.43 -7.88,-1.95 -3.85,-15.66 -15.4,-14.02 -1.27,2.37 0.44,3.6 0,7.02l0 0zm-606.93 9.11c1.3,-0.12 1.5,0.8 2.77,0.7 1.31,-2.5 0.92,-6.06 -2.09,-6.28 -0.44,1.67 -0.97,3.15 -0.68,5.58l0 0zm770.4 8.48c-7.34,-2.65 -8.3,6.41 -7.77,13.99 2.62,1.38 6.79,3.06 9.23,0.7 1.69,-5.54 0.97,-10.56 -1.46,-14.69l0 0zm-107.33 16.1c2.18,2.93 3.69,6.55 7.04,8.42 2.33,-4.63 2.24,-10.12 -0.69,-14.05 -4.61,-2.02 -5.47,2.03 -6.35,5.63zm28.01 -1.41c-9.07,5.47 -17.87,14.04 -15.35,28.75 4.19,3.35 6.76,8.06 8.4,14.03 1.51,1.32 4.92,0.71 5.54,2.8 -0.62,4.45 -2.71,10.17 0,14.08 2.23,-0.38 2.52,1.24 4.97,0.7 2.7,-2.44 4.55,-5.75 8.39,-7.01 3.26,3.51 7.81,5.8 12.67,7.73 1.75,-5.05 2.68,-16.63 -4.17,-18.3 -1.66,1.95 -5.11,2.1 -7.04,3.53 0,-2.34 -2.29,-2.36 -2.14,-4.93 2.33,-4.83 4.32,-6.38 4.28,-9.79 -0.3,-8.4 -13.37,-11.05 -12.63,-17.55 0.39,-4.18 5.04,-2.46 5.53,-7.7 -3.11,-1.81 -4.07,-5.79 -8.45,-6.34l0 0zm-72.99 44.22c-0.39,-1.45 1.16,-4.88 -1.37,-4.23 -1.01,1.08 -1.15,4.83 1.37,4.23zm47.75 11.19c-18.91,-12.63 -9.05,23.32 2.85,21.08 1.7,-7.14 3.31,-14.45 6.22,-20.36 -1.7,-1.71 -6.42,-1.83 -9.08,-0.72l0.01 0zm69.48 23.87c2.15,-1.33 1.9,-5.1 2.05,-8.43 -6.85,-7.55 -9.86,7.99 -2.05,8.43zm-28.69 -6.3c-0.78,0.83 0.14,2.54 -0.74,4.21 -2.33,4.04 -6.01,6.37 -5.62,9.84 0.38,4.08 4.95,6.19 8.34,8.4 3.06,-1.48 5.78,-3.18 9.24,-4.2 8.06,5.62 -6.51,16.49 2.72,21.76 1.07,-1.1 2.81,-1.52 4.9,-1.42 3.64,-10.42 -1.11,-21.4 -4.9,-28.76 2.08,-4.02 5.34,-6.86 5.62,-12.61 -6.41,-0.79 -14.76,-2.63 -19.56,2.77l0 0.01zm-47.11 28.78c3.99,0.22 3.99,-3.54 4.9,-6.33 -5.53,-2.48 -0.44,-11.36 -7.67,-11.92 1.61,6.89 -1.45,14.15 2.77,18.26l0 -0.01zm25.25 16.1c3.26,6.47 12.44,10.91 13.99,15.44 -0.43,2.62 1.32,3.02 0.78,5.66 4.37,-0.82 2.34,-8.03 2.82,-12.61 -4.13,-8.04 -6.03,-18.4 -14.66,-21.82 -0.4,-3.41 -0.59,-6.91 -3.56,-7.71 -5.97,-1 -1.65,16.49 0.63,21.04l0 0zm41.43 -4.2c-4.02,6 -0.04,14.48 4.91,17.52 12.29,-3.43 3.83,-15.94 -4.91,-17.52zm106.7 28.76c3.12,-5.95 0.15,-14.89 -5.63,-16.07 -2.67,5.24 -2.77,17.43 5.63,16.07zm-100.39 2.82c2.24,-0.35 2.43,1.26 4.86,0.72 -0.04,-2.81 1.89,-6.16 0,-8.39 -3.59,-1.43 -6.26,3.92 -4.86,7.67zm40.75 45.6c2.61,-9.13 6.36,-27.82 -6.37,-28.04 -3.29,-4.52 -9.27,-23.02 -16.85,-22.45 -8.06,0.57 -5.48,15.82 -9.08,23.15 9.04,7.38 -5,13.33 -4.85,20.35 0,3.2 4.13,6.02 4.85,9.11 1.52,6.53 -0.97,13.23 3.51,17.55 -0.44,8.74 -2.1,21.85 2.81,28.01 2.76,-0.09 6.79,-4.43 9.13,-0.63 -1.17,4.23 -5.49,5.3 -6.37,9.76 4.86,1.7 11.46,-0.61 11.27,6.37 -0.15,3.69 -5.87,4.9 -8.4,9.08 -3.39,5.44 -1.99,9.76 -2.87,15.45 8.12,-1.17 6.37,-14.62 16.86,-11.17 2.91,-4.17 1.41,-12.63 3.5,-17.59 1.7,-1.3 4.13,0.83 6.32,-0.67 3.44,-5.78 -0.5,-11.42 -2.82,-15.47 6.21,-9.28 -0.4,-18.09 -3.5,-25.96 5.34,-2.91 5.72,-10.78 2.87,-16.85l-0.01 0zm25.25 -0.66c7.92,0.82 5.73,-9.79 2.09,-11.94 -3.05,1.55 -3.58,8.03 -2.09,11.94zm27.34 16.1c5.55,1.12 7.29,-0.32 10.51,-2.81 0.13,-13.26 -17.59,-10.71 -10.51,2.81zm12.59 13.36c5.82,-2.21 12.63,-7 10.63,-14.72 -3.99,-0.92 -7.09,1.85 -11.26,-0.7 -0.74,4.8 -4.67,12.79 0.63,15.41l0 0.01zm-4.95 9.84c-4.86,-5.52 -11.57,-0.81 -19.53,-2.84 -3.74,10.05 -14.28,28.3 -2.14,35.84 5.49,-0.93 5.53,-7.14 12,-7.09 3.49,2.33 4.31,7.33 7.67,9.91 5.38,-6.5 15.49,-14.52 8.31,-25.3 4.02,-2.63 10.05,-11.23 2.91,-14.74 -3.98,0.45 -5.3,3.56 -9.22,4.23l0 -0.01zm-44.78 58.93c0.63,0 1.4,0 2.03,0 0.19,-1.74 0.19,-3.46 -1.4,-3.54 -0.35,1.49 -1.99,2.27 -0.63,3.54zm13.26 51.87c-5.31,-11.17 -14.14,12.33 -3.46,12.67 3.02,-2.33 3.65,-7.09 3.46,-12.67zm30.93 12.67c2.83,-3.88 2.27,-10.64 -0.73,-14.04 -12.43,-1.15 -12.04,20.27 0.73,14.04zm-24.52 8.4c1.26,0.58 2.47,1.17 4.12,1.42 3.69,-1.95 6.41,-11.08 0.68,-12.59 0.92,6.22 -6.17,4.51 -4.8,11.17l0 0zm-10.64 2.14c-10.54,-3.84 -11.27,13.99 0,13.3 5.69,-2.14 3.83,-11.94 0,-13.3zm0.77 59.63c3.35,-0.38 2.09,-5.38 3.46,-7.76 -1.17,0 -2.29,0 -3.46,0 -0.73,1.85 -1.36,6.02 0,7.76z"/>
   <path class="fil0" d="M738.85 133.76c2.23,0.8 3.88,2.17 5.63,3.5 -0.93,2.4 -4.77,3.09 -7.05,2.11 0.39,-1.96 1.03,-3.67 1.41,-5.61l0.01 0z"/>
   <path class="fil0" d="M435.06 152.03c1.08,4.05 9.62,14.69 7.77,15.9 -3.44,7.12 -7.91,13.14 -15.44,16.15 -1.7,-0.24 -2.62,-1.16 -4.95,-0.75 -2.63,0.63 -2.92,3.64 -4.13,5.62 0.2,3.56 3.45,4.02 2.76,8.43 -4.41,3.16 -9.71,3.29 -11.21,8.43 -0.73,2.25 0.73,5.11 0,7.67 -1.41,4.74 -5.78,7.77 -6.27,11.93 -7.08,1.65 -23.84,-6.08 -29.67,-10.25 -6.27,4.73 -12.39,9.54 -16.8,16.15 -4.37,0.42 -4.43,-3.48 -7.72,-4.22 -4.58,7.23 -10.06,15.22 -23.12,11.91 -2.43,4.89 -9.52,4.96 -11.22,10.52 -2.19,0.53 -2.04,-1.18 -4.23,-0.63 -1.65,8.6 16.42,6.17 10.49,16.78 -3.84,0.17 -8.45,-0.47 -11.22,0.7 -2.76,-2.96 -1.16,-6.14 -1.41,-11.21 -11.94,-5.2 -9.52,13.04 -21.02,8.4 -5.3,2.81 -0.63,9.88 -1.41,13.32 -7.97,-2.52 -11.47,6.44 -18.27,9.16 -0.53,-2.65 -2.82,-3.72 -3.49,-6.37 3,-4.94 7.33,-8.53 12.62,-11.18 2.53,-6.7 7.67,-17.52 -0.68,-21.79 -2.18,0.1 -3.11,1.64 -5.64,1.43 -2.66,-8.71 3.4,-14.27 11.22,-14.73 4.38,5.94 14.82,5.78 24.58,6.32 9.47,-7.05 30.89,-8.9 22.39,-27.37 6.95,-5.75 15.74,-0.86 26.04,-0.73 3.68,-2.17 5.83,-5.84 8.39,-9.09 -0.53,-3.29 -3.44,-4.05 -6.31,-4.87 7.29,-3.97 16.27,-6.25 18.99,-14.8 2.19,0.18 3.89,0.73 5.58,1.44 4.08,-2.99 7.19,-6.87 7.78,-13.35 5.58,-2.11 10.92,-0.38 15.39,-2.11 4.23,-1.64 6.46,-7.33 11.85,-6.34 4.86,-4.74 6.36,-12.85 18.35,-10.46l0.01 -0.01z"/>
   <path class="fil0" d="M475.71 166.74c2.38,0.46 3.64,2.02 7.04,1.4 0.73,2.24 1.41,4.65 1.41,7.73 -1.79,-0.29 -1.6,1.24 -3.54,0.73 -2.77,-1.23 -4.03,-3.94 -6.32,-5.65 -0.19,-2.09 1.55,-2.19 1.41,-4.21l0 0z"/>
   <path class="fil0" d="M1105.86 197.66c2.57,-0.32 3.58,3.15 2.09,4.86 -1.08,-1.26 -2.58,-2.18 -2.09,-4.86z"/>
   <path class="fil0" d="M377.51 236.24c8.36,6.39 10.69,18.93 5.98,22.17 2.52,9.52 -2.73,12.36 -2.77,21.05 -7.15,5.05 -7.48,16.92 -12,24.55 -3.54,-1.63 -22.69,-15.51 -28.42,-14.49 -1.45,0.26 -10.92,6.85 -14.03,10.54 -1.56,1.77 -1.65,4.21 -2.87,5.6 -3.01,3.65 -7.47,5.23 -7.67,9.11 -0.1,4.69 6.26,6.19 2.77,11.22 -5.73,1.07 -4.96,-4.98 -9.04,-4.88 -5.3,0.15 -3.74,5.42 -7.72,9.12 -3.83,0.75 -2.86,-3.17 -6.41,-2.85 -3.64,2.91 -0.53,9.7 -2.67,14.78 -6.85,0.81 -13.16,5.49 -11.32,16.86 -2.33,1.21 -4.22,2.78 -6.99,3.49 -0.91,2.99 0.1,3.47 0,7.02 1.17,2.06 4.57,2 6.32,3.49 1.84,3.69 -0.2,7.36 2.09,9.85 11.22,-0.1 6.6,-11.66 13.3,-16.16 3.59,-0.26 4.91,1.66 7.04,2.82 2.48,-4.76 2.09,-12.43 4.91,-16.85 2.23,0.48 2.04,-1.2 4.18,-0.7 5.19,-8.14 11.07,-15.62 16.17,-23.84 10,1.81 8.25,-13.58 16.17,-16.13 3.98,6 5.39,10.73 6.41,18.31 -9.08,11.53 -7.28,33.86 -14.86,47.01 2.43,7.11 0.97,15.65 -3.45,21.02 -2.67,12.59 -0.49,29.9 -5.53,40 -2.78,0.32 -15.16,-0.27 -16.28,-1.48 -7.14,2.07 -6.41,11.83 -14.08,13.38 -3.11,5.97 -2.53,15.7 -6.99,20.3 3.15,12.09 -3.26,18.04 -9.77,22.49 -2.52,-0.04 -4.07,-1.1 -6.31,-1.45 -8.89,3.95 0.49,8.94 0,16.16 -1.74,2.97 -5.1,3.11 -9.18,2.13 -2.62,0.88 -3.3,3.68 -4.17,6.3 1.89,-2.02 6.21,-1.48 9.03,-0.73 0,1.67 0,3.29 0,4.93 -3.45,1.99 -6.36,-0.37 -8.4,-2.09 -11.65,0.92 -7.87,10.78 -10.44,18.92 0.82,6.86 15.73,9.47 18.84,3.51 0.39,-5.5 -3.11,-9.2 0.73,-12.63 4.71,-0.01 5.39,4.23 9.19,3.53 6.54,-1.29 7.42,-23.17 15.38,-26.67 0.11,-3.42 0.15,-6.74 -1.41,-8.44 5.3,-5.75 11.28,-10.73 12.68,-20.3 3.94,-0.67 13.75,0.87 15.3,2.56 -0.93,12.56 -5.68,21.34 -6.99,33.69 -2.44,1.05 -12.44,3.06 -13.94,5.11 -0.2,2.88 0.68,6.76 -1.41,7.74 -4.08,0.77 -15.11,18.45 -14.08,23.17 1.79,7.02 7.72,-0.3 13.39,3.52 4.47,-1.9 0.69,-10.77 2.1,-14.06 1.89,-0.95 3.74,-1.9 5.63,-2.8 0.29,-4.08 7.24,-10.22 9.77,-12.16 8.58,1.77 4.36,7.16 3.48,14.04 -0.87,5.94 0.35,16.33 1.08,23.69 0.72,8.31 2.13,17.3 2.81,23.84 0.49,5.66 -0.87,11.4 0.63,16.86 3.11,10.36 1.51,32.08 7.05,40.7 3.35,12.89 -28.42,14.97 -16.42,23.47 3.98,-0.19 5.39,-6 8.5,-4.87 5.74,8.91 0.68,21.06 4.81,30.18 2.43,0.54 9.76,-5.68 11.94,-5.3 1.41,4.18 -0.77,9.63 0,15.41 9.52,13.49 12.34,30.06 21.13,43.51 0.63,7.08 -7.67,22 -8.45,29.87 11.61,2.76 -1.07,24.27 11.85,27.33 -0.05,4.86 0.68,10.5 -2.09,12.63 1.07,4.86 5.88,5.92 9.86,7.77 0.78,1.03 0.82,2.92 2.04,3.5 0.44,4.32 -1.07,8.49 0.73,11.94 0.92,1.56 3.3,2.62 4.27,4.19 2.48,4.46 3.16,13.79 8.35,16.84 -0.48,2.87 0.68,4.04 0.68,6.32 9.48,10.73 17.54,22.73 26.71,33.71 1.61,0 3.31,0 4.86,0 0.39,3.84 2.23,6.22 2.87,9.76 -7.29,-0.38 -8.65,-6.7 -15.35,-7.67 -2.38,3.4 -0.34,6.85 -0.83,11.94 -2.14,-0.38 -2.42,1.26 -4.9,0.69 -1.65,-9.34 -4.85,-17.15 -11.22,-21.76 -0.62,-7.29 -0.73,-15.15 -1.41,-22.44 -6.84,-4.81 -8.88,-14.47 -14.76,-20.4 -1.61,-11.85 -12.29,-14.66 -16.81,-23.79 0.64,-5.2 2.43,-8.94 -2.08,-11.27 -3.07,1.55 -1.95,7.47 -2.1,11.94 -6.45,1.17 -7.47,10.3 -5.68,17.53 4.76,0.3 4.03,-4.9 8.46,-4.9 2.52,0.63 3.35,2.72 3.59,5.63 -6.55,1.75 -13.74,6.12 -14.13,12.62 -0.1,2.2 2.67,4.48 2.87,7.67 0.09,2.78 -1.8,5.25 -1.46,7.05 0.48,2.53 4.76,8.61 7.77,10.54 0.92,0.69 3.21,-0.35 4.23,0 4.81,1.65 7.81,9.91 11.89,9.12 -2.47,3.22 -9.61,2.53 -10.54,8.46 -0.63,4.18 2.78,5.38 3.5,9.82 0.25,1.45 -1.31,3.2 -1.41,4.9 -0.09,3.25 2.23,6.94 1.41,10.54 -0.29,1.3 -2.04,3 -2.04,4.17 0,8.84 8.8,14.66 16.13,12.63 2.23,2.91 4.66,5.63 9.76,5.63 0.63,1.98 -0.73,5.74 0,9.08 0.54,2.28 3.1,2.57 5.63,6.36 1.27,1.85 1.07,4.28 2.19,5.58 2.05,2.68 6.22,4.38 8.4,7.04 2.67,3.41 2.47,6.51 6.99,7.67 3.16,0.79 6.36,-1.64 9.04,0 0.58,2.92 1.46,5.69 1.5,9.13 7.04,3.65 7.82,15.94 16.13,16.17 1.8,8.21 12.09,7.98 18.98,11.17 2.48,-0.43 3.8,-2.27 6.27,-2.76 2.09,3.3 -0.29,8.06 1.41,12.62 2.04,0 4.18,0 6.27,0 1.31,2.73 2.76,5.26 4.96,7 7.71,-1.66 10.77,15.54 10.97,23.31 -2.82,0.69 -6.51,-3.1 -10.54,-3.5 -4.03,1.66 -5.39,0.88 -9.86,0 -7.58,2.58 -15.64,0.78 -21.71,-1.46 -6.99,1.17 -17.43,3.22 -21.71,-1.36 -9.32,2.58 -14.08,-6.54 -25.3,-3.5 -2.48,0.4 -1.7,-2.51 -4.18,-2.12 -21.65,1.84 -29.92,-11.81 -49.1,-11.9 -3.16,-2.05 -4.95,15.1 -7.53,12.67 -0.53,1.03 -2.23,0.97 -2.09,2.83 -7.57,-10.93 -21.32,-15.65 -33.66,-21.81 -2.42,-0.54 -2.66,1.11 -5,0.72 -2.23,-2.33 -5.97,-6.21 -11.46,-5.33 -3.59,-8.12 -17.09,-6.32 -19.72,-15.45 -3.35,-1.36 -7.38,-1.95 -11.17,-2.81 -1.74,-6.51 1.26,-13.8 -4.18,-16.9 -5.82,-0.11 -6.56,4.75 -13.35,3.58 -8.51,-7.33 3.44,-49.43 -4.62,-56.58 -5.29,0.34 -7.33,-2.47 -13.35,-1.4 -2.67,-3.21 -1.99,-7.58 -1.42,-12.63 -2.13,-1.26 -6.8,-0.29 -7.71,-2.81 -8.55,6.5 3.1,46.81 -0.11,55.89 -10.97,-7.42 -17.28,-19.67 -29.42,-25.98 -1.12,-1.65 -1.46,-4.17 -2.82,-5.63 -3.15,-0.73 -2.33,2.43 -4.86,2.13 -1.65,-5.82 -9.95,-8.1 -9.9,-13.31 -1.66,-1.8 -1.55,1.36 -2.04,2.82 -1.46,-5.24 3.88,7.19 -4.08,6.9 -1.07,-3.4 -2.38,-0.97 -3.93,-3.98 -0.59,-1.07 -1.61,-15.55 -2.43,-16.51 -0.87,-1.27 -1.61,9.41 -3.88,6.3 -4.71,-6.61 -16.32,-2.82 -11.03,-13.4 -0.58,-5.72 -14.47,-20.3 -17.39,-20.49 -8.69,-6.51 -18.93,-28.23 -28.36,-34 0.39,-3.01 -2.14,-30.84 -1.55,-33.89 5.24,-1.9 27.58,-17.74 29.92,-22.64 -2.04,-8.93 2.86,-11.71 4.85,-18.21 -0.57,-4.91 -5.19,-7.58 -3.39,-12.68 -0.63,-1.55 -2.48,-1.74 -3.6,-2.77 -7.77,1.12 -5.97,11.75 -11.89,14.72 -3.21,-3.79 -4.42,-9.67 -9.13,-11.95 -3.26,0.49 -3.79,3.73 -6.95,4.23 -7.14,-10.35 3.26,-16.89 3.35,-28.07 7.05,0.14 8.46,-5.2 14.04,-6.32 2.57,-13.35 -8.26,-12.09 -13.21,-6.31 -4.37,-1.99 -5.34,-7.33 -11.22,-7.73 -3.78,2.39 -3.01,9.13 -4.96,13.32 -6.35,-6.22 -5.68,-21.72 1.46,-26.62 2.48,-20.49 -6.69,-27.25 -5,-45.6 1.85,-0.35 2.14,-2.09 4.23,-2.14 1.84,-4.18 0.88,-9.23 2.81,-14.03 1.07,-2.58 3.65,-3.6 4.18,-6.32 1.31,-5.71 -2.82,-13.89 5,-15.4 2.92,7.67 -4.71,21.03 -3.54,26.62 0.48,2.47 2.14,4.36 4.28,4.23 6.45,-0.54 3.78,-17.9 8.98,-21.75 9.67,0.22 -3.98,19.07 7,17.52 5.68,-0.79 11.94,-30.19 -4.14,-23.17 -1.41,-9.61 4.04,-23.7 8.4,-32.24 4.13,2.91 6.99,7.01 12.69,8.39 6.15,-1.7 8.93,-12.89 5.57,-19.61 -4.66,-0.41 -6.21,-4.16 -10.49,-4.9 -3.49,3.03 -9.61,9.46 -16.17,4.9 -1.35,-1.32 -0.24,-2.58 0,-4.26 -8.54,-5.02 -5.24,-17.26 2.09,-21.03 0,-2.79 0,-5.6 0,-8.44 11.52,-3.82 8.35,-18.19 9.92,-31.54 7.08,-6.48 6.59,-17.53 11.16,-27.35 3.94,-8.5 14.33,-13.55 11.17,-26.72 2.09,-0.32 3.01,-1.63 4.9,-2.08 1.6,-5.21 5.97,-8.18 7.82,-14.02 1.26,-4.1 -0.24,-8.78 1.36,-12.65 2.67,-6.27 11.81,-8.79 14.04,-14.72 0.82,-12.48 11.12,-15.57 14.03,-25.98 2.67,0.17 3.41,2.22 5.63,2.79 5.69,-2.21 4.62,-11.27 11.9,-11.93 3.01,-5.72 -0.53,-9.85 -3.45,-13.33 3.11,-7.99 13.07,-9.35 16.08,-17.47 0.88,-4.62 -3.01,-4.5 -2.14,-9.16 2.23,-4.18 7.82,-4.83 7.73,-11.24 8.06,2.13 8.06,-7.55 10.53,-11.93 3.99,0.48 4.76,4.16 6.99,6.29 -0.97,12.09 -9.03,17.21 -11.27,28.1 -1.3,1.19 -1.99,3.1 -4.07,3.51 -1.17,6.5 2.96,13.36 -3.6,16.13 -4.08,0.67 -2.67,-4.29 -6.31,-4.23 -2.57,7.64 -1.61,18.95 -2.04,28.78 -5.1,5.54 -7.19,18.39 -10.59,27.37 -1.35,3.85 -5.29,8.37 -0.72,13.38 2.86,-0.49 4.07,0.66 6.35,0.68 -0.38,-4.21 -1.02,-10.95 6.37,-10.56 -0.73,-3.5 -2.82,-5.56 -2.14,-10.55 3.79,-1.52 7.29,-3.41 8.4,-7.67 10.34,-1.86 10,-14.33 16.8,-19.64 4.67,0.16 7.24,2.16 11.32,2.79 1.56,0.24 0.78,-2.01 2.04,-2.11 0.1,-7.78 -10.59,-4.84 -10.54,-12.61 2.34,-1.83 5.2,1.13 7.73,-0.7 4.07,-3.95 3.15,-12.79 3.54,-20.34 2.24,-0.51 4.37,-1.29 6.31,-2.14 3.84,-3.42 5.31,-9.19 10.54,-11.2 -0.53,-2.16 1.26,-2.09 0.63,-4.22 6.17,-3.02 8.74,-10.64 13.36,-16.13 1.07,-1.21 3.21,-1.58 4.22,-2.81 5.4,-6.88 8.11,-18.7 16.95,-18.97 3.21,-2.6 0.97,-7.28 4.08,-9.1 5.05,-0.39 3.02,6.35 6.36,7.74 2.58,0.72 2.24,-1.51 3.5,-2.11 -4.96,-21.07 15.15,-28.09 21.03,-42.83 7.97,-0.91 12.44,-5.37 16.17,-10.49 7.73,-1.69 9.47,2.63 12.63,5.57 2.66,-0.35 3.36,-2.72 4.17,-4.87 -1.31,-3.06 -3.84,-5.05 -2.71,-10.54 7.72,-2.53 11.75,-8.81 19.61,-11.18l0.01 0.01zm-56.19 52.55c-8.98,-2.36 -11.45,11.81 -4.23,13.34 2.34,-2.29 2.92,-6.4 4.91,-9.1 1.7,-0.29 1.56,1.29 3.55,0.71 2.96,-3.47 1.69,-5.61 4.9,-8.43 6.21,-5.32 21.08,-5.95 18.94,-16.83 -14.86,-9.06 -20.98,12.44 -28.07,20.31l0 0zm-65.85 80.03c1.84,0.91 3.88,1.7 7,1.41 0.38,-2.81 1.5,-5.02 1.35,-8.43 -5.05,-2.3 -8.74,1.7 -8.35,7.02zm13.88 8.42c4.48,1.99 2.58,10.08 7.78,11.21 2.53,-7.01 -4.91,-9.35 -6.32,-14.75 0.54,2.19 -1.94,1.36 -1.46,3.54zm-23.11 3.48c-10.78,10.76 10.05,16.04 8.4,28.77 12,3.58 24.14,-10.4 16.85,-21.73 -1.85,0 -3.69,0 -5.59,0 -1.59,3.53 -1.11,9.23 -4.22,11.24 -10.11,-1.18 -6.12,-16.26 -15.44,-18.28l0 0zm42.1 32.32c-3.06,4.81 -8.88,4.84 -6.31,12.61 6.75,1.52 6.12,10.27 10.64,14.01 0.53,-3.14 1.65,-5.74 1.99,-9.11 -0.92,-2.59 -4.38,-2.62 -4.13,-6.31 2.19,-2.41 3.88,-5.41 9.04,-4.91 1.65,-2.83 2.33,-6.55 2.76,-10.51 1.94,-0.92 3.79,-1.89 5.69,-2.84 2.33,-6.22 -0.73,-11.39 -4.28,-14.02 -14.03,-2.74 -10.1,12.73 -15.39,21.09l-0.01 -0.01zm-25.88 90.5c0.29,-1.33 1.5,-1.76 1.35,-3.51 -0.97,0.01 -1.6,-0.37 -2.14,-0.69 -1.26,1.81 -1.74,3.35 0.79,4.2l0 0zm-11.32 75.77c0.19,-1.75 2.43,-3.72 2.86,-6.29 0.39,-2.47 -0.63,-5.71 0,-7.7 0.79,-3.11 3.35,-4.46 3.5,-7.08 0.59,-11.21 -11.17,-10.48 -13.35,-2.08 -1.65,6.69 3.15,11.81 1.41,18.92 -1.41,5.77 -13.51,12.37 -6.31,21.05 5.73,-0.43 7.87,-2.81 11.89,-3.47 2.82,-4.01 -0.53,-8.09 0,-13.35l0 0zm-54.69 0c7.19,2.93 10.74,-6.14 8.46,-12.63 -6.9,0.56 -10.79,4.96 -8.46,12.63zm-13.3 30.15c-5.05,1.9 -4.27,6.92 -7.05,11.96 -3.06,5.57 -8.01,6.3 -8.5,10.56 -0.34,3.88 3.5,7.94 2.87,11.93 -0.68,4.83 -7.33,8.81 -9.13,14 -3.5,10.35 -1.22,19.73 0.73,28.07 -1.95,3.35 -3.45,7.25 -2.77,13.32 -0.82,2.28 -3.88,2.24 -4.27,4.9 -0.68,14.18 -7.43,32.24 4.9,39.34 3.35,-3.06 3.15,-9.81 2.14,-15.44 4.86,-3.21 8.59,-9.66 8.4,-16.13 -0.1,-2.66 -2,-5.34 -2.09,-7.76 -0.44,-11.03 7.67,-17.29 11.9,-26 -11.75,-9.37 5.19,-16.07 6.31,-26.61 0.64,-5.19 -2.33,-5.79 -3.45,-12.61 1.31,-3.15 5.54,-3.44 8.36,-4.95 3.34,-10.82 -0.15,-22.87 2.76,-32.94 1.75,-5.52 8.46,-9.06 5.68,-14.77 -9.27,1.26 -19.56,7.61 -16.8,23.14l0.01 -0.01zm94.7 -16.11c-9.71,-12.27 -16.17,16.84 -0.72,11.91 1.46,-3.73 1.31,-7.49 0.72,-11.91zm-144.57 25.27c3.79,6.48 1.69,14.43 -4.91,16.13 -0.92,9.2 -9.13,10.93 -6.27,23.84 -4.85,4.04 -5.15,16.27 4.86,14.72 4.08,-4.17 0,-8.27 -0.68,-13.3 5.1,-8.46 8.12,-19.07 16.13,-24.59 -4.58,-9.73 4.7,-19.52 2.76,-28.77 -6.36,1.58 -8.69,7.17 -11.9,11.97l0.01 0zm157.98 -2.11c0.92,-2.09 1.85,-4.2 1.41,-7.72 -1.11,-0.37 -1.85,-1.04 -2.91,-1.41 -0.2,3.62 -3.26,8.45 1.5,9.12l0 0.01zm-67.41 17.53c9.28,3.69 16.27,-5.38 12.58,-16.14 -1.16,1.33 -1.89,-3.64 -4.13,-3.5 -6.94,2.52 -5.83,12.97 -8.44,19.64l-0.01 0zm-117.92 -6.29c2.72,2.24 5.92,1.61 9.86,1.42 9.28,-11.66 -10.98,-21.32 -9.86,-1.42zm3.5 58.23c2.19,-4.02 5.34,-6.79 5.58,-12.67 -12,-7.2 -16.02,10.77 -5.58,12.67zm-24.53 9.82c2.88,3.69 7.29,1.01 10.55,-0.68 -0.39,-2.96 -1.08,-5.54 -1.42,-8.45 -5.82,-4.86 -11.02,0.43 -9.12,9.12l-0.01 0.01zm230.16 -11.22c-4.76,2.03 -3.88,7.91 -4.95,14.03 -0.73,4.47 -5.39,9.66 -0.63,11.96 9.03,-1.85 13.3,-19.73 5.58,-25.99l0 0zm-193.73 11.89c3.26,-0.92 4.76,-3.68 4.95,-7.66 -1.21,-0.97 -2.33,-1.89 -4.95,-1.47 -0.78,2.97 -0.78,6.23 0,9.13zm-4.13 21.08c2.19,-0.09 3.06,-1.59 2.73,-4.22 -0.93,0 -1.51,-0.3 -2,-0.68 -1.02,0.87 -0.73,3.06 -0.73,4.9l0 0zm48.37 40.02c0.49,2.87 -1.02,3.59 -0.63,6.27 -7.19,1.55 -8.45,9.03 -7.82,18.26 -3.5,2.24 -7.28,4.32 -7.72,9.85 8.16,4.67 0.49,13.17 0.73,19.63 0.14,4.21 4.76,8.1 5.68,13.36 2.39,14.31 -0.09,26.31 0.63,38.54 5.93,6.71 10.83,14.44 18.94,19 1.74,4.51 4.32,8.3 9.81,9.09 8.16,-7.39 4.52,-25.74 1.41,-35.81 5.68,-3.92 6.02,-12.28 0,-16.11 -0.29,-14.24 0.97,-30.9 -4.17,-42.78 -2.58,-1.67 -8.84,0.38 -11.17,-1.42 -1.36,-5.73 3.74,-5.11 3.44,-9.81 -1.01,-3.01 -5.33,-2.62 -7.76,-4.23 -1.08,-12.87 7.47,-16.02 8.45,-26.71 -3.79,-3.1 -6.02,1.91 -9.81,2.87l-0.01 0zm155.07 12.62c4.38,-2.18 5.54,-7.62 6.37,-13.35 -9.38,-8.79 -11.52,7.19 -6.37,13.35zm16.13 65.91c0.82,-2.43 4.32,-3.7 4.95,-6.26 2.48,-10.59 -8.64,-15.25 -7.72,-26.66 -3.64,-1.07 -3.83,-5.58 -8.45,-5.64 -4.23,2.67 -2.38,9.85 -0.73,14.04 5.83,1.21 9.42,8 4.17,12.63 -3.06,-0.4 -4.32,1.21 -7.67,0.73 -0.68,-3.26 -0.97,-7 -4.23,-7.78 -1.94,2.52 -1.16,7.67 -1.35,11.95 5.97,5.24 7.77,13.4 12.63,21.07 -0.06,4.73 0.53,8.84 5.63,8.4 3.49,-7.67 0.39,-15.49 2.76,-22.48l0.01 0zm-142.49 58.95c6.07,2.82 9.08,-9.12 1.5,-9.12 -2.23,1.95 -2.28,6.02 -1.5,9.12zm35.11 7c0.44,4.52 4.61,7.67 7.73,12.73 3,4.8 4.07,8.65 9.12,9.82 1.07,6.88 1.61,14.31 4.27,19.61 1.37,0 2.72,0 4.13,0 4.32,-4.86 -1.6,-9.41 -2.77,-13.3 3.59,-15.75 -7.24,-27.98 -18.26,-33.71 0,-1.9 0.29,-3.99 -0.73,-4.96 -0.58,0 -1.36,0 -2.04,0 1.21,3.7 -1.65,6.66 -1.46,9.81l0.01 0zm-24.48 -2.71c-14.13,-1.36 -9.22,16.89 0.63,18.94 7.53,-4.09 2.23,-13.7 -0.63,-18.94zm72.95 44.87c3.83,-6.76 -0.58,-11.12 0,-19.61 -15.01,-8.17 -8.5,17.67 0,19.61zm0 9.13c-6.46,-5.78 -11.95,0.09 -11.22,9.13 -4.96,2.33 -5.93,12.15 1.36,12.62 2.18,-0.48 1.35,-3.78 3.5,-4.27 3.21,2.03 4.66,5.69 9.18,6.32 6.41,-6.61 0.19,-18.07 -2.82,-23.8l0 0z"/>
   <path class="fil0" d="M532.53 271.99c0.64,0.32 1.27,0.6 1.41,1.43 -0.87,3.98 -2.9,6.79 -4.9,9.78 -5.39,-3.59 0.93,-9.08 3.5,-11.21l-0.01 0z"/>
   <path class="fil0" d="M1076.42 286.04c1.18,2.28 1.62,3.93 0.68,6.99 -4.76,0 -10,0.57 -11.25,-2.81 -1.04,-5.82 5.91,-3.83 10.56,-4.18l0.01 0z"/>
   <path class="fil0" d="M262.46 286.74c1.99,3.28 -0.24,7.49 -2.14,9.09 -1.94,0 -3.74,0 -5.68,0 -4.13,-5.37 2.24,-9.12 7.82,-9.09l0 0z"/>
   <path class="fil0" d="M251.87 312.7c-6.31,2.43 -8.55,-4.37 -13.99,-4.93 -2.52,5.93 -6.41,10.42 -10.53,14.75 -3.65,-1.92 -6.36,-4.89 -9.23,-7.75 0.77,-3.59 4.52,-6.71 11.27,-7.7 10,-1.48 21.51,-10.61 22.49,5.63l-0.01 0z"/>
   <path class="fil0" d="M630.1 321.82c2.09,-0.18 2.48,2.5 1.36,3.52 -2.38,0.48 -2.42,-2.5 -1.36,-3.52z"/>
   <path class="fil0" d="M235.07 324.63c1.16,3.26 -0.64,4.11 -2.19,6.29 -4.47,-1.1 -2.57,-8.88 2.19,-6.29z"/>
   <path class="fil0" d="M625.2 325.99c-2.19,6.07 -6.02,10.45 -14.76,9.85 -0.93,-3.06 -0.44,-3.92 0.73,-6.34 7.43,1.57 7.43,-4.27 14.03,-3.51z"/>
   <path class="fil0" d="M748.71 340.75c7.86,2.53 17.87,8.8 25.93,4.9 7.18,6.08 17.58,1 23.22,9.11 2.76,0.29 2.72,-2.33 6.22,-1.38 2.22,3.84 -1.32,5.56 -1.38,9.12 1.95,8.4 17.55,3.05 20.4,10.52 5.15,-0.54 6.75,2.65 7.63,6.31 -4.66,2.46 -7.82,-0.98 -9.76,-3.51 -11.96,-0.59 -25.83,-5.34 -39.98,-4.17 -1.89,-2.17 -2.56,-5.48 -5,-7.05 -6.16,0.8 -11.61,2.79 -13.93,-2.8 0.67,-2.59 2.67,-3.78 1.99,-7.71 -0.78,-1.98 -2.82,-2.36 -4.82,-1.42 -1.79,1.64 -1.3,5.34 -2.86,7.05 -6.41,1.16 -11.31,-0.61 -17.53,-1.43 -2.48,-9.02 7.91,-10.64 9.86,-17.54l0.01 0z"/>
   <path class="fil0" d="M821.65 359.72c-0.68,1.58 -2.43,2.21 -4.91,2.08 -0.48,-2.14 -0.48,-1.33 0,-3.51 2.92,-0.68 3.64,-0.75 4.91,1.43z"/>
   <path class="fil0" d="M636.42 377.25c3.01,8.24 -5.88,6.03 -9.81,3.47 2.53,-2.06 6.36,-6.44 9.81,-3.47z"/>
   <path class="fil0" d="M866.52 398.3c-0.82,-1.45 -1.88,-2.77 -2.76,-4.23 -2.14,-0.48 -2.09,1.2 -4.19,0.71 -0.42,-4.71 -6.01,-4.31 -8.44,-7.02 0,-0.45 0,-0.94 0,-1.38 3.92,-5.98 10.54,-3.39 13.3,1.38 1.9,0 3.79,0 5.68,0 1.37,6.73 18.6,5.42 19.62,12.66 0.25,2.21 -1.4,6.41 -5,7.01 -7.86,1.29 -8.26,-10.56 -18.21,-9.13z"/>
   <path class="fil0" d="M703.15 389.88c-3.55,4.71 -11.52,7.82 -19.72,5.61 -2.78,2.15 -3.5,6.33 -6.31,8.4 -11.27,1.67 -21.52,-0.91 -29.43,3.54 0,-0.97 0,-1.87 0,-2.84 3.69,-1.99 6.8,-6.55 11.89,-9.11 3.06,-0.1 3.45,2.57 6.27,2.82 5.84,-1.68 9.47,-5.6 12.68,-9.85 8.11,1.07 22.48,-6.7 24.62,1.42l0 0.01z"/>
   <path class="fil0" d="M727.63 398.3c-9.81,1.36 -14.96,-1.92 -20.35,-4.93 3.25,-7.91 16.46,-7.57 24.62,-5.61 2.43,5.52 -2.82,6.88 -4.27,10.55l0 -0.01z"/>
   <path class="fil0" d="M762.06 399.69c-7.14,0.55 -15.35,0.73 -22.54,-2.11 0.3,-2.2 -1.21,-2.5 -0.67,-4.9 7.32,-0.08 20.97,-5.26 23.21,7.02l0 -0.01z"/>
   <path class="fil0" d="M803.45 401.78c0,1.41 0,2.81 0,4.2 -9.97,4.9 -21.72,-4.33 -33.04,-6.29 3.16,-8.08 16.81,-3.13 19.62,1.38 4.81,-0.12 8.98,-1.48 13.42,0.7l0 0.01z"/>
   <path class="fil0" d="M640.6 409.49c-1.02,0.37 -1.81,1.06 -2.82,1.44 -2.72,-2.65 -4.85,-5.87 -7.04,-9.15 3.73,-7.94 10.83,0.7 9.86,7.71l0 0z"/>
   <path class="fil0" d="M935.34 417.22c-0.53,13.11 22.2,11.17 14.76,24.57 -9.9,-5.82 -25.24,-6.04 -25.24,-21.73 -1.7,1.11 -2.05,3.62 -3.6,4.93 -9.52,1.77 -8.7,-6.77 -18.27,-4.93 -2.28,-4.01 -6.07,-6.56 -9.8,-9.13 -0.78,-5.42 4.61,-4.8 8.44,-5.64 2.34,0.22 1.51,-2.69 3.45,-2.79 5.49,-1.74 8.22,1.7 10.59,4.93 9.82,0.06 10.88,8.72 19.67,9.79z"/>
   <path class="fil0" d="M694.7 408.13c6.07,2.08 2.43,10.11 -2.19,11.2 -4.95,-2.18 -2.28,-10.47 2.19,-11.2z"/>
   <path class="fil0" d="M627.97 413.71c-1.84,1.23 -6.66,2.29 -9.18,0.73 0.24,-1.16 -0.53,-1.2 -0.63,-2.12 0.63,-4.69 10.97,-4.92 9.81,1.39l0 0z"/>
   <path class="fil0" d="M722 417.95c4.51,-3.82 14.8,1.04 9.12,5.61 -5.93,1.24 -6.22,-3.12 -9.9,-4.23 -2.87,0.78 -2.92,4.52 -6.9,4.23 -2.39,-5.45 4.9,-11.1 7.68,-5.61l0 0z"/>
   <path class="fil0" d="M967.63 443.88c1.17,2.3 2.58,4.41 2.05,8.43 -4.08,-0.55 -6.03,-3.3 -7,-7.02 1.51,-0.56 2.39,-1.8 4.95,-1.41z"/>
   <path class="fil0" d="M498.2 465.63c-0.15,5.08 -0.15,10 1.36,13.32 -1.85,1.74 -3.45,0.66 -7,1.46 -1.94,-3.73 -3.19,-7.99 -2.81,-14.06 3.01,-0.05 4.95,-1.16 8.45,-0.71l0 -0.01z"/>
   <path class="fil0" d="M485.58 508.45c0.68,0 1.35,0 2.08,0 1.31,4.49 -2.42,12.57 -8.4,9.84 0.49,-4.83 5.35,-5.42 6.32,-9.84z"/>
   <path class="fil0" d="M976.72 617.23c6.56,0.47 10.73,6.88 7.82,14.75 -4.13,-3.3 -8.17,-9.5 -7.82,-14.75z"/>
   <path class="fil0" d="M1044.09 649.5c2.7,-0.47 3.34,6.2 0,5.6 0,-1.84 0,-3.72 0,-5.6z"/>
   <path class="fil0" d="M1003.38 651.59c5.58,5.02 1.7,15.46 2.77,23.17 0.34,2.09 1.46,3.7 1.41,5.63 -0.05,4.09 -3.06,7.79 -2.77,11.23 0.54,6.95 10.89,12.92 0.69,17.47 -2.68,-4.75 -4.63,-11.02 -6.32,-16.8 -1.32,-4.42 0.1,-10.97 -1.36,-17.53 -1.36,-5.82 -8.61,-11.12 -5.58,-18.94 5.87,4 6.64,-2.91 11.15,-4.23l0.01 0z"/>
   <path class="fil0" d="M1052.59 664.28c1.11,1.11 0.52,4.08 0.63,6.26 -1.8,1.32 -4.13,-1.65 -7.67,-0.73 -1.96,-5.82 3.1,-7.77 7.04,-5.53l0 0z"/>
   <path class="fil0" d="M1011.74 748.44c-2.28,1.36 -5.15,2.29 -9.04,2.09 -3.74,-9.08 10.05,-13.65 9.04,-2.09z"/>
   <path class="fil0" d="M1008.29 762.42c0.53,1.71 1.45,4.92 0,6.37 -1.66,-0.24 -2.68,-1.16 -4.92,-0.68 -2.66,-4.43 -0.77,-7.49 4.92,-5.69l0 0z"/>
   <path class="fil0" d="M397.14 762.42c3.25,6.86 6.45,13.75 8.39,21.82 -5.97,-4.04 -10.2,-10.01 -8.39,-21.82z"/>
   <path class="fil0" d="M1007.56 780.7c3.88,-0.44 5.44,1.64 9.13,1.4 -0.1,7.42 -5.44,8.93 -2.78,17.58 -1.64,0.44 -1.89,2.27 -3.5,2.76 -4.07,0.34 -4.17,-3.39 -9.12,-2.09 -6.85,-4.94 0.39,-15.78 5.59,-14.72 -0.34,-2.27 1.22,-2.52 0.68,-4.94l0 0.01z"/>
   <path class="fil0" d="M389.46 787.72c2.76,2.78 2.92,8.21 2.76,13.99 -3.39,-2.22 -2.27,-8.93 -2.76,-13.99z"/>
   <path class="fil0" d="M994.99 816.49c-3.27,-6.46 5.44,-11.52 6.3,-5.63 0.4,2.62 -1.99,5.63 -6.3,5.63z"/>
   <path class="fil0" d="M390.82 819.3c3.11,2.04 4.8,5.49 6.99,8.4 14.28,-0.44 11.61,15.97 21.13,20.35 3.84,0.63 5.15,-1.36 8.35,-1.36 4.66,4.08 -4.96,13.11 2.14,15.45 2.72,0.09 2.76,-2.43 4.85,-2.82 2.19,6.4 -1.36,18.65 10.55,16.85 1.06,4.32 0.53,10.19 3.49,12.62 1.75,-0.38 2.92,-1.36 4.27,-2.14 22.64,17.54 34.34,46.09 63.19,57.56 1.5,2.87 0,5.24 -2.14,6.31 -10.58,-11.17 -26.71,-16.42 -37.93,-25.26 0.93,-4.46 -3.01,-7.67 -6.31,-5.62 -5.24,-6.51 -9.23,-16.9 -21.07,-14.78 -3.26,-0.57 -2.53,-5.39 -7,-4.86 -0.97,-14.46 -7.05,-23.88 -15.45,-30.88 -7.67,7.19 -1.4,20.55 -0.63,28.07 -3.5,0.1 -5.53,-2.24 -4.22,-4.95 -4.42,-8.26 -9.18,-16.08 -13.99,-23.8 1.74,-11.03 -1.8,-21.37 -7.87,-26.71 2.23,-6.18 -0.68,-14.18 -7.73,-11.21 -2.62,-2.87 -3.54,-8.17 -0.62,-11.23l0 0.01z"/>
   <path class="fil0" d="M996.39 824.94c5.84,8 2.09,22.72 -4.92,28.01 -6.4,-0.34 -6.45,-7.04 -14.03,-6.26 -0.92,-4.38 1.51,-5.49 3.46,-7.04 2.42,0.2 1.98,3.16 3.64,4.22 3.1,-0.96 5.15,-3.2 6.93,-5.63 -0.62,-5.24 -4.46,-14.81 4.91,-13.3l0.01 0z"/>
   <path class="fil0" d="M973.23 850.87c1.94,0.88 1.35,4.37 1.46,7.04 -3.94,-0.44 -4.29,-5.39 -1.46,-7.04z"/>
   <path class="fil0" d="M998.53 873.35c4.71,4.33 1.8,11.62 -2.92,14.03 -3.29,-1.74 -5.63,-0.19 -8.4,-2.12 0.15,-7.58 5.01,-10.49 11.32,-11.91l0 0z"/>
   <path class="fil0" d="M993.57 899.34c0.68,1.74 0.79,4.27 0.68,6.99 -2.03,1.35 -4.71,2.23 -6.3,4.18 -3.6,-2.1 -1.96,-8.74 0,-11.17 3.19,0.29 3.48,-0.97 5.62,0l0 0z"/>
   <path class="fil0" d="M444.83 911.24c0.77,2.57 -1.7,1.98 -1.36,4.17 -2.43,-0.15 -5.73,0.58 -7,-0.63 -7.14,3.99 -0.44,9.32 2.09,13.21 -0.82,3.49 -5.29,3.27 -7.09,5.68 -1.46,-1.02 -1.36,-3.79 -3.45,-4.23 -1.46,0.21 -1.41,1.9 -2.77,2.1 1.22,12.67 13.32,10.72 25.16,11.95 4.32,7.33 16.18,14.12 9.91,27.34 -6.56,-2.58 -7.53,-10.1 -14.03,-12.59 -2.39,-0.92 -5.83,0.34 -8.46,-0.73 -6.16,-2.42 -8.94,-10.67 -14.76,-12.62 0.97,-11.66 -14.67,-13.6 -9.86,-24.57 9.96,5.01 13.79,-4.37 10.59,-11.16 7.42,0.67 16.5,-3.12 21.03,2.08l0 0z"/>
   <path class="fil0" d="M450.41 925.27c8.4,-0.15 13.5,5.83 12.63,12.63 -5.55,-2.82 -12.43,-4.43 -12.63,-12.63z"/>
   <path class="fil0" d="M472.95 943.48c2.37,0.39 3.1,2.48 2.76,5.63 -4.22,0.59 -3.2,-3.07 -2.76,-5.63z"/>
   <path class="fil0" d="M483.38 949.11c1.22,2.39 1.22,6.32 -1.4,7 -0.88,-1.41 -2.82,-1.75 -3.45,-3.5 0.34,-2.47 2.28,-3.4 4.85,-3.5l0 0z"/>
   <path class="fil0" d="M523.45 952.62c0.69,0 1.37,0 2.09,0 0.54,1.6 2.29,4.03 0.64,5.62 -2.87,0.25 -4.23,-3.64 -2.73,-5.62l0 0z"/>
   <path class="fil0" d="M509.42 960.34c-4.28,2.95 -8.55,6.02 -14.72,6.99 -0.63,-0.54 -0.48,-1.89 -1.45,-2.14 1.45,-7.67 11.99,-13.31 16.17,-4.85l0 0z"/>
   <path class="fil0" d="M545.89 965.19c-0.53,1.85 -1.65,3.01 -3.54,3.55 -2.87,-2.43 -5.98,-4.81 -9.08,-7 0,-0.67 0,-1.4 0,-2.09 6.11,-2.62 8.69,3.85 12.62,5.54z"/>
   <path class="fil0" d="M905.86 962.47c1.99,1.26 -0.38,4.23 -0.78,5.58 -3.49,-1.11 -1.01,-4.22 0.78,-5.58z"/>
   <path class="fil0" d="M513.64 963.83c4.81,0.72 5.2,5.97 11.17,5.64 -0.29,6.22 -3.5,9.51 -5.63,14.03 -3.74,-1.11 -4.76,-5 -7.67,-7.05 0.54,-4.36 1.41,-8.44 2.13,-12.62l0 0z"/>
   <path class="fil0" d="M491.11 985.58c-0.49,2.15 1.21,2.09 0.77,4.29 -6.07,-2.43 -7.81,3.29 -12.62,4.17 -1.31,-4.56 -2.24,-9.51 -4.96,-12.63 -2.47,-0.28 -3.74,-1.89 -7.03,-1.45 0.97,-18.21 12.87,2.33 17.57,5.62 2.09,0 4.28,0 6.27,0l0 0z"/>
   <path class="fil0" d="M558.52 971.6c6.21,-0.39 8.99,2.62 11.22,6.27 -2.67,5.39 -7.04,-1.61 -11.22,-1.42 0,-1.6 0,-3.25 0,-4.85l0 0z"/>
   <path class="fil0" d="M533.27 977.14c5.92,3.99 9.08,10.87 16.8,11.95 2.23,0.34 4.61,-1.36 7.09,-0.69 2.91,0.84 4.91,5.55 9.08,7.73 4.37,2.27 8.21,1.31 10.54,5.62 2.67,-0.57 3.35,0.84 5.58,0.75 8.84,9.12 26.62,9.36 38.61,15.34 7.04,-0.49 14.47,4.18 18.99,0 2.38,2.57 7.87,1.94 8.35,6.3 -2.67,2.64 -6.12,0.79 -8.35,-0.63 -15.05,-0.09 -34.63,-0.72 -45.02,-7.77 -6.85,4.32 -10,-3.29 -13.94,-4.89 -4.95,-1.94 -9.12,-0.39 -14.76,0 -3.35,-2.63 -7.48,-5.44 -11.95,-4.86 -6.16,-8.55 -18.6,-10.88 -27.3,-16.9 0.97,-5.05 5.98,-6.12 6.27,-11.95l0.01 0z"/>
   <path class="fil0" d="M945.87 988.4c-1.88,0 -3.73,0 -5.67,0 -3.36,-4.27 0.2,-10.09 4.85,-10.53 2.09,2.76 2.91,7.14 0.82,10.53l0 0z"/>
   <path class="fil0" d="M891.1 982.77c1.9,2.43 -1.75,5.24 -2.77,7.09 -2.28,-2.82 1.32,-5.83 2.77,-7.09z"/>
   <path class="fil0" d="M593.58 984.23c0,1.35 0,2.77 0,4.17 -2.04,1.95 -7.14,1.85 -8.45,-0.67 -0.29,-4.37 5.98,-4.08 8.45,-3.5z"/>
   <path class="fil0" d="M502.38 995.4c2.23,0.97 2.33,0.19 4.85,0 1.85,9.32 14.72,7.39 12.72,20.34 -1.93,1.13 -4.17,1.9 -6.98,2.1 -0.58,-1.51 -1.56,-2.73 -1.46,-4.86 -9.52,-4.91 -15.06,-13.41 -16.81,-23.11 4.27,-2.53 6.08,3 7.67,5.53l0.01 0z"/>
   <path class="fil0" d="M550.79 1026.28c-5.29,0.82 -7.57,4.58 -9.13,9.13 -6.07,-5.15 -14.52,-7.87 -20.3,-13.3 1.75,-3.16 5.44,-4.42 6.27,-8.46 9.03,2.92 20.83,3.12 23.16,12.63l0 0z"/>
   <path class="fil0" d="M564.16 1027.07c3.15,2.14 4.89,8.59 10.53,6.21 0.44,2.13 2.62,2.53 2.09,5.63 -6.61,3.69 -19.13,0.44 -16.86,-11.21 2.14,0.48 2.1,-1.23 4.24,-0.64l0 0.01z"/>
   <path class="fil0" d="M831.5 1085.24c0.88,3.59 -2.85,5.05 -4.96,3.5 0,-3.19 2.83,-4.36 4.96,-3.5z"/>
   <path class="fil0" d="M820.97 1089.43c1.74,-0.1 2.13,1.17 3.39,1.46 -0.96,1.64 -0.38,5.15 -3.39,4.86 -1.7,-1.9 -1.26,-4.09 0,-6.32z"/>
   <path class="fil0" d="M276.35 1165.34c3.79,4.5 8.64,12.28 11.99,16.75 8.36,-1.11 11.61,7.67 14.77,14.04 6.76,1.8 8.65,-4.91 10.49,-5.59 3.2,1.27 0.82,8.06 3.49,9.76 13.42,-0.24 13.56,12.68 22.49,16.86 0,1.36 0,2.81 0,4.21 -4.76,-2.18 -10.24,-3.73 -12.57,-8.5 -13.6,12.25 -22.49,-7.27 -29.43,-14.65 -5.25,0.53 -8.31,-1.17 -13.36,-0.73 -1.55,-5.59 1.31,-11.52 -1.45,-16.08 -2.67,0.39 -2.87,0.53 -4.92,-0.72 -0.39,-3.7 -0.97,-11.57 -1.5,-15.35l0 0z"/>
   <path class="fil0" d="M1099.5 1177.13c1.69,-0.23 1.56,1.32 3.54,0.73 3.01,5.16 0.3,12.97 -4.95,14.04 0.44,-4.96 0.44,-10.29 1.41,-14.77z"/>
   <path class="fil0" d="M444.15 1204.53c3.35,0.73 2.37,-2.83 5.63,-2.09 4.85,0.73 3.88,7.33 7.72,9.08 3.69,0 4.42,-3.01 8.35,-2.82 2.04,12.04 -13.84,6.32 -18.21,11.95 -1.99,7.92 4.47,7.23 4.18,13.35 -16.7,1.99 -21.08,-13.8 -35.75,-16.17 -1.07,-2.91 -3.49,-4.42 -5.58,-6.31 -1.99,-0.58 -1.84,0.97 -3.45,0.68 -1.75,-2.08 -2.77,-4.76 -5,-6.31 -11.66,2.33 -13.5,-9.33 -25.2,-9.13 -5,-12.09 7.09,-5.39 6.89,-10.5 5.06,1.85 9.09,10.89 13.41,13.36 2.72,-1.31 6.6,-0.77 7.72,1.41 13.02,-2.43 31.48,-3.45 39.29,3.5l0 0zm-21.76 2.81c-1.56,8.5 6.07,12.92 11.89,16.12 9.52,-6.89 -0.72,-25.3 -11.89,-16.12z"/>
   <path class="fil0" d="M350.85 1226.29c7.72,1.89 12.34,6.79 20.25,8.44 2.58,-1.26 2.58,-4.99 5,-6.31 8.4,3.55 1.45,12.43 3.45,20.3 5.68,-0.54 8.3,3.12 12.67,5.64 2,-0.63 2.92,-2.33 5.59,-2.09 0.68,1.4 1.36,2.76 2.14,4.18 16.76,2.33 31.47,6.85 42.11,15.44 3.39,-2.97 11.61,-2.38 16.8,-1.41 2.48,3.2 0.59,10.69 2.14,14.71 3.31,-2.08 4.81,-5.87 8.4,-7.71 2,1.6 2.62,4.42 4.91,5.62 14.32,0.1 24.47,-2.43 29.47,7.73 8.51,-1.22 14.14,5.78 22.4,6.99 3.69,0.34 4.41,-2.19 7.09,-2.77 3.64,0.58 3.93,4.47 5.63,7 11.27,-1.51 19.52,0 25.89,6.31 2.52,-0.19 3.39,-1.07 5.62,0 1.76,11.75 -5.04,15.06 -6.94,23.17 -13.5,0.49 -25.59,-1.7 -35.16,-9.09 -6.41,1.42 -10.39,-1.35 -16.12,1.36 -3.5,-0.67 -3.7,-4.71 -5.55,-6.98 -7.52,-1.32 -12.18,-1.17 -17.53,-4.23 -2.62,0.23 -2.96,2.76 -6.36,2.08 -3.2,-6.16 5.49,-6.06 7,-9.81 -3.11,-8.64 -15.59,-4.32 -18.89,-13.3 -6.46,-0.1 -10.2,2.43 -12.73,6.26 -3.15,-1.11 -4.42,0.24 -8.35,0 -0.87,-11.5 -7.58,-17.19 -17.53,-19.62 -1.94,2.76 -2.54,6.85 -5.69,8.45 -4.91,-2.19 -5.97,-1.5 -10.49,0.63 -0.92,-4.85 -4.18,-7.47 -9.03,-8.35 -4.32,1.55 -3.16,6.12 -7.87,5.53 -5.53,-0.57 -3.55,-11.75 -9.08,-13.98 -6.37,2.67 -8.7,-1.9 -14.72,-1.36 -2.14,-5.05 1.07,-9.42 2.82,-12.67 -1.56,-10.6 -13.01,-11.28 -18.9,-17.54 -3.35,-1.07 -2.38,0.58 -5.73,0.67 -0.38,-4.95 -3.39,-7.28 -2.71,-13.3l0 0.01z"/>
   <path class="fil0" d="M1059.48 683.21c0.88,6.12 -3.41,8.7 -1.41,13.26 2.62,6.03 12.28,0.64 19.03,2.83 2.43,-0.97 0.82,-6.12 2.14,-8.4 1.02,2.66 4.43,2.95 6.27,4.9 0,1.61 0,3.21 0,4.9 -2.63,0.73 -2.24,-1.46 -3.55,-2.09 -1.55,0.78 -1.89,2.82 -3.54,3.5 1.4,3.06 2.97,5.97 6.32,6.99 -0.54,9.77 8.93,14.38 11.88,21.77 0.69,1.46 0,3.54 0.78,4.9 2.28,4.21 3.89,3.59 5.63,9.18 0.59,1.94 3.65,3.64 4.19,4.9 1.3,3.2 0.44,7.72 1.36,11.27 3.1,2.32 3.4,7.38 8.45,7.67 2.47,3.45 2.38,9.32 7.05,10.53 2.03,15.02 9.74,24.34 12.67,38.62 6.85,3.5 1.93,14.67 9.03,18.16 -3.35,10.06 6.47,18.36 7.04,27.38 0.39,5.65 -1.76,10.89 4.23,13.32 -0.4,9.28 -1.32,23.31 7.04,25.98 -4.95,13.4 3.83,29.59 -1.46,42.11 0.58,5.35 2.48,9.27 6.32,11.22 0.77,4.27 -1.66,5.4 -2.05,8.45 -2.71,-0.14 -3.65,1.51 -5.58,2.1 -5.68,12.33 -10.54,25.53 -12,42.1 2.43,4.23 9.19,0.92 11.23,-1.41 -0.68,-10.2 1.79,-17.38 4.27,-24.57 1.8,0 3.7,0 5.53,0 0.98,4.76 -1.3,11.56 -4.9,14.08 -1.7,17.24 -1.26,36.62 -9.08,47.68 1.95,9.44 1.95,15.16 -0.73,23.86 -7.42,0.73 -10.83,5.58 -11.94,12.63 -8.9,3.49 -12.49,12.28 -16.17,21.03 4.32,10.68 16.21,-9.38 16.84,-16.12 2.97,-0.2 3.12,-3.12 6.37,-2.82 1.7,3.69 0.13,8.06 -2.72,9.12 -4.32,13.6 -8.9,26.81 -14.2,39.35 -2.32,0 -2.41,-2.34 -4.8,-2.1 -10.97,4.09 -4.9,10.31 -2.13,18.22 -7.38,0.3 -11.81,-2.28 -18.94,-2.13 -7.1,7.91 -12.73,17.28 -25.26,19.61 -0.38,2.53 -1.61,4.08 -1.45,7.08 6.02,3.16 0.87,17.4 7.03,20.31 3.93,-0.29 5.44,-0.77 9.13,0 0.38,7.58 -10.83,7.14 -16.17,4.91 0.63,-12.78 -14.47,-9.87 -18.9,-17.54 -8.06,2.83 -10.91,13.99 -3.45,19.67 5.55,0 11.18,0 16.77,0 -0.35,2.24 1.31,2.48 0.77,4.91 -10.15,-0.68 -14.95,12.52 -2.9,13.31 -4,9.22 -13.47,14.46 -21.67,20.35 -6.42,4.5 -8.6,10.78 -15.49,13.34 -1.61,0.63 -3.84,-0.09 -5.64,0.74 -2.28,1.02 -3.83,3.74 -6.3,4.91 -6.18,3.06 -13.51,2.62 -17.54,9.12 -1.55,-0.78 -2.28,-2.43 -4.18,-2.81 -2.81,1.6 -5.53,5.49 -9.91,3.5 -3.07,4.84 -7.18,8.63 -9.08,14.72 -5.93,-0.54 -10.15,4.99 -14.82,6.35 -8.54,2.53 -20.34,-1.99 -23.84,5.59 -1.99,0.53 -1.88,-1.17 -4.13,-0.69 -3.58,0.35 -3.39,4.51 -6.3,5.59 -3.89,0.19 -7.63,0.09 -9.76,-1.4 -2.29,5.68 -10.93,10.62 -17.54,5.58 -4.33,2.47 -4.66,5.63 -9.92,6.36 -2.38,0.35 -5.62,-1.32 -7.67,-0.73 -6.7,2.05 -5.57,10.78 -11.31,14.08 -4.65,0.98 -5.68,-1.74 -6.94,-4.22 -10.21,0.73 -11.7,-13.07 -18.95,-17.53 0.59,-5.2 4.96,-5.06 9.14,-3.55 3.3,-2.77 5.34,-7.97 2.09,-11.95 -4.04,4.61 -4.13,-1.31 -7,-1.36 -14.47,-0.04 -4.75,19.57 -4.23,30.16 -3.39,2.92 -4.56,8.06 -6.32,12.62 -11.69,1.26 -28.35,-2.03 -37.92,4.92 -6.84,-2.78 -9.86,4.21 -15.39,5.62 -4.03,0.97 -8.02,-1.64 -12.63,-2.08 -10.97,-1.13 -22,-1.61 -28.07,6.98 -10.78,-4.56 -23.41,0.35 -36.52,-3.48 -2.71,0.29 -2.62,3.44 -4.91,4.17 -9.32,-1.36 -12.62,2.09 -17.48,-4.86 -2.77,0.92 -5.15,2.43 -7.09,4.17 -5,-3.29 -12.63,-0.86 -17.49,-4.89 -2.86,0 -3.06,2.56 -4.91,3.44 -7.14,-2.66 -14.76,-2.12 -20.4,1.46 -3.44,-1.46 -5.67,-4.18 -9.08,-5.63 -9.07,4.29 -23.7,-4.67 -32.97,2.14 -1.32,-1.07 -3.99,-0.78 -5.01,-2.14 -2.33,0.88 -2.13,4.37 -5.48,4.17 0.14,-8.64 -8.8,-8.3 -15.54,-8.34 0.78,-5.74 4.95,-4.38 4.95,-9.13 -0.04,-4.18 -7.67,-6.31 -5.58,-13.31 0.53,-0.68 1.89,-0.44 2.09,-1.46 6.26,-0.19 6.65,5.53 11.22,6.99 2.18,-0.82 3.05,-3.01 5.58,-3.49 3.64,2.97 5,8.21 9.13,10.58 3.7,-0.78 6.17,-2.77 8.45,-4.95 3.59,2.08 6.5,4.7 9.81,7.03 5.44,-0.92 14.62,-3.15 18.26,0.73 3.16,-0.38 3.99,-3.1 7.04,-3.54 6.07,0.98 14.62,2.77 20.35,0 6.32,6.76 19.24,3.06 29.38,3.54 1.85,2.78 3.36,6.03 6.37,7.67 17.04,-0.53 34.58,-15.59 47.68,-3.5 3.75,-3.39 8.56,-10.48 5.69,-16.17 -6.22,1.13 -13.4,5.34 -18.31,0.06 -4.76,5.34 -22.43,5.09 -24.57,-3.5 -8.4,0.29 -13.46,-2.53 -20.35,0 -13.31,-6.8 -35.26,3.21 -44.2,-8.46 -4.51,5.93 -11.02,2.43 -17.58,2.83 -2.81,-1.03 -3.35,-4.08 -6.26,-4.96 -5,-1.41 -10.64,3.01 -16.13,1.46 -4.89,-1.46 -4.99,-5.59 -10.53,-7.04 -5.98,1.51 -12.05,1.89 -15.45,-2.09 -2.57,-0.5 -2.67,1.46 -4.91,1.4 -6.12,-6.07 -16.37,-8.06 -20.3,-16.17 -5.48,3.12 -11.51,-2.53 -17.58,0.69 -1.99,-8.36 -15.58,-15.59 -17.53,-2.77 -5.49,-2.05 -5.25,-8.6 -9.86,-11.9 -5.35,-3.93 -14.76,-2.43 -17.49,-9.86 -8.69,3.5 -11.51,-3.64 -14.08,-8.4 0.48,-5.62 2.33,-13.74 -3.5,-14.77 -3.59,1.26 -2.86,6.03 -2.08,9.81 -2.53,2.62 -4.38,5.93 -9.19,6.37 -3.1,-3.27 -5,-8.11 -4.12,-11.96 1.21,-5.78 11.11,-6.64 11.22,-12.63 10.53,-1.05 18.01,1.04 25.25,3.46 1.26,6.94 -4.23,7.93 -8.45,5.63 -2.72,0.82 -2.48,5.97 -1.36,8.46 7.14,-1.51 8.45,2.76 11.9,4.9 2.96,-1.7 4.65,-4.67 5.58,-8.4 6.03,2.52 14.23,-3.35 19.67,2.03 3.16,-1.15 4.32,-4.52 5.58,-7.67 12.54,2.83 14.72,19.23 28.08,22.49 1.94,0.43 4.51,-0.34 6.41,0 3.54,0.53 6.31,3.45 9.71,4.18 6.7,1.49 11.95,-1.17 19.62,-1.42 3.84,-1.11 3.06,-6.89 6.99,-7.67 3.4,0.82 2.04,6.51 3.59,9.09 4.92,4.52 21.38,7.14 17.54,-7.04 0.59,-0.59 1.94,-0.4 2.14,-1.42 4.71,-1.11 3.88,3.12 6.99,3.55 2.43,-0.2 3.79,-1.46 5.59,-2.13 4.66,5.43 11.75,4.02 18.99,6.31 3.69,-0.78 3.49,-5.34 5.59,-7.73 -2.1,-7.91 -7.54,-12.57 -13.31,-16.8 -5.44,0.44 -5.97,5.73 -12,5.59 -0.44,-2.24 -1.46,-4.08 -2.72,-5.59 -3.31,-0.24 -3.88,2.18 -6.36,2.82 -8.35,-0.1 -16.03,-4.52 -23.8,-2.82 -3.65,-0.92 -3.65,-5.3 -9.23,-4.23 -2.53,0.97 -3.4,3.56 -6.27,4.23 -1.46,-0.88 -2.77,-1.93 -4.22,-2.77 2.87,-9.13 -8.93,-7.28 -9.76,-14.76 -4.76,-0.35 -6.66,2.28 -10.54,2.82 -4.76,-2.63 -11.65,-7.68 -16.9,-2.15 -6.12,-2.37 -12.68,-0.86 -19.63,-1.45 -2.81,-2.28 -0.19,-10.01 -2.08,-13.26 -17.44,-5.79 -30.94,1.6 -50.5,-2.13 2.27,-2.09 10.53,-9.09 11.99,-11.96 8.59,4.53 6.02,2.48 14.86,0 2.33,-0.29 5.72,-4.61 7.03,-3.73 4.04,-3.99 5.93,-1.36 12.34,-1.65 2.86,-0.88 5.54,8.25 6.36,5.43 1.36,1.36 3.36,0.35 4.91,0 0.68,3.51 1.56,-10.78 3.06,-7.47 3.69,-1.36 6.42,3.83 7.39,-1.27 1.85,1.27 4.9,-2.14 7.38,-1.64 7.86,-1.57 8.84,-5.88 16.07,-3.7 7.54,-1.85 5.01,2.03 12,-0.38 2.19,-0.59 7.73,-6.52 9.86,-7 4.04,-1.07 5.88,-0.38 6.22,-3.35 2.19,0.34 7.29,1.41 10.69,0.82 3.49,-0.58 1.16,-2.82 3.3,-5.34 6.8,3.11 13.01,4.96 16.85,0.88 2.04,0 2.67,-1.56 4.57,-1.26 5.54,-1.95 4.08,-5.64 11.12,-4.13 2.38,-1.51 5.44,-3.26 6.99,-5.79 12.49,-0.29 24.48,-11.7 34.92,-13.6 2.28,-5.63 11.32,0.78 13.99,-4.46 2.28,-0.5 4.13,-11.75 5.82,-11.56 4.14,-6.32 8.79,11.31 10.21,1.26 5.58,4.56 11.4,-15.16 18.99,-10.69 3.29,-2.03 8.2,-3.83 11.5,-3.7 3.21,1.03 1.8,12 3.01,15.75 5.73,6.21 19.33,0.67 15.59,-11.27 5.82,-0.16 6.65,-5.44 13.94,-4.23 0.58,3.64 -0.64,10.15 2.87,12.68 4.22,-2.92 12.62,-1.95 16.12,-5.64 12.19,2.47 21.28,-3.35 27.4,-9.13 2.38,1.27 4.31,-0.78 7.04,0.69 12.23,-4.96 26.56,-4.53 35.01,-14.04 1.41,0 2.77,0 4.28,0 3.54,-5.54 14.79,-3.35 18.89,-8.4 8.2,2.43 12.62,-0.88 14.65,-6.32 4.67,0.19 4.39,5.15 9.92,4.23 0.29,-7.43 -0.88,-16.76 9.09,-16.17 3.48,-2.62 3.88,-8.31 7.71,-10.5 3.21,-0.04 2.93,2.33 4.96,0 1.26,-8.98 9.95,-10.62 9.76,-21.07 8.11,-0.58 13.26,-4.08 16.9,-9.13 -1.12,-11.75 -12.23,-4.81 -18.93,-8.4 -3.26,0.73 -3.94,4.03 -7.05,4.9 -2.58,-0.63 -4.95,-1.55 -7.78,-2.04 -5,3.46 -9.41,10.83 -7.62,18.9 1.36,2.33 5.2,2.33 5.65,5.68 -1.27,7.39 -8.8,8.54 -12.69,13.25 -6.16,-2.86 -8.65,4.82 -12.67,6.31 -2.24,0.88 -4.86,-0.13 -7,0.75 -4.56,1.83 -7.05,6.54 -11.27,8.4 -6.99,0.04 -12.29,1.69 -15.39,5.57 -6.07,-1.06 -7.14,2.68 -10.49,4.28 -6.41,-2.72 0.87,-9.09 2.13,-12.63 9.24,-4.27 34.19,-1.65 30.85,-15.44 -2.78,-10.89 -23.9,-4.58 -28.13,4.17 -5.82,1.26 -10.49,-0.38 -16.12,0.69 -2.33,1.45 -3.15,4.32 -4.91,6.31 -8.69,-0.44 -18.2,-8.11 -19.61,4.27 -2.82,0.48 -11.03,0.29 -13.55,-1.26 2.08,-6.99 14.12,-5.93 17.09,-12.09 6.46,0.28 7.57,-7.43 13.31,-5.63 -0.44,-2.24 0.73,-7.73 0.97,-9.37 5.1,-3.99 10.69,-2.83 15.83,-6.76 0.92,-9.18 9.38,-10.83 12,-18.26 5.82,14.62 -10.73,17.43 -7.09,31.61 0.82,-0.15 1.26,0.1 1.45,0.68 3.65,1.22 4.19,-2.32 6.95,-2.82 2.58,-0.38 5.24,1.23 7.73,0.69 12.19,-2.43 8.79,-16.99 16.85,-24.53 -0.49,-3.06 1.11,-3.93 0.68,-7.04 1.89,0 3.78,0 5.62,0 4.19,-4.96 7.54,-10.68 10.6,-16.8 6.6,-1.46 16.32,-20.5 14.66,-27.39 -1.31,-5.74 -7.87,-4.67 -9.81,-10.54 3.45,-4.23 6.41,-9.04 12,-11.23 3.64,2.14 7.23,2.29 12.58,1.41 4.8,-8.65 -2.24,-15.44 -7,-18.99 5.74,-6.31 6.36,-17.92 13.26,-23.11 -0.44,-3.7 0.59,-5.99 1.36,-8.46 9.95,-1.3 8.01,-14.47 18.36,-15.4 2.04,-13.11 10.53,-19.86 21.76,-23.84 3.39,12 -7.82,14.96 -7.1,26.62 -2.62,1.54 -5.68,2.71 -7.71,4.95 0,4.67 0,9.38 0,13.99 -1.95,3.35 -6.47,4.27 -8.36,7.77 0.1,7.1 -1.51,12.44 -3.54,17.49 -12.48,-2.43 -15.79,10.2 -13.99,21.8 3.15,1.89 7.67,2.29 11.9,1.41 2.18,-7.38 7.71,-11.46 11.26,-17.58 3.74,1.16 1.75,7.96 5.59,9.12 4.22,0.29 6.11,-4.74 9.08,-3.48 1.89,2.41 -0.69,5 0,8.44 3.59,1.46 13.83,-4.27 15.5,-7.77 2.53,-5.34 -0.5,-13.3 0.73,-19.61 1.01,-5.74 9.22,-9.63 8.34,-17.59 -0.44,-4.17 -4.96,-5.33 -2.81,-9.81 1.36,-1.36 3.35,-0.29 4.95,0 9.42,-6.99 0,-21.32 2.09,-32.92 3.16,-0.78 6.85,-1.12 10.54,-1.41 2.82,-5.68 -1.65,-8.79 -4.23,-11.22 7.67,-6.85 15.01,-13.98 19.58,-23.89 10.1,-0.06 11.17,-11.85 3.64,-15.41 -0.49,-5.81 4.38,-12.57 4.13,-18.26 2.77,0.54 1.45,5.11 4.23,5.59 6.5,1.07 6.74,-3.98 11.88,-4.17 -0.38,9.9 -5.67,16.75 2.14,22.43 5.93,-0.87 6.03,-7.62 12.63,-7.73 10.64,-16.06 -9.8,-21.21 -19.67,-27.33 -2.97,1.45 -5.72,3.1 -9.07,4.17 -0.35,-8.68 0.29,-16.51 4.27,-20.97 3.41,2.03 -2.38,7.23 0.67,11.16 12.73,3.31 15.94,-12.87 4.13,-13.31 4.23,-6.16 -2.43,-10.1 -2.09,-15.44 0.2,-3.12 3.07,-3.35 4.18,-6.32 2.24,-5.39 0.53,-9.91 0,-16.16 -5.73,-2.28 -5.15,-13.07 0.82,-14.72 -0.29,-3.26 -4.12,-3.06 -4.31,-6.37 3.35,-7.72 -2.67,-12.19 -5.59,-16.11 1.27,-7.14 7.96,-5.55 10.49,-0.64l0.01 0.01zm16.94 209.03c0.3,-2.13 -0.92,-2.87 -2.18,-3.45 -0.08,3.26 -0.92,-1.6 -3.45,0 -0.73,1.86 -1.45,3.64 -1.41,6.27 2.09,-0.49 2,1.22 4.14,0.68 2.13,-2.14 -0.3,-6.66 2.9,-3.5l0 0zm9.09 -142.39c-7.47,1.51 -13.74,10.1 -7.72,16.84 -4.89,1.22 -8.41,7.88 -4.95,13.31 0.53,0.16 1.4,0 1.4,0.69 7,0.14 9.27,-7.63 6.33,-13.35 6.01,-7.44 15.53,-20.65 10.53,-32.21 -8.31,-2.91 -7.05,8.94 -5.59,14.72zm10.49 19.61c1.46,0.63 2.04,2.15 4.28,2.15 3.1,-2.34 5,-6.41 2.76,-10.49 -5.97,-2.73 -6.65,3.39 -7.04,8.34zm4.95 27.41c4.96,4.17 7.19,-3.79 11.96,-2.15 2.08,-3.15 2.47,-7.67 0,-10.48 -9.57,-1.32 -10.1,6.26 -11.96,12.63l0 0zm-4.32 -2.83c0.83,-2.82 0.83,-4.91 0,-7.72 -5.69,-0.34 -2.72,6.85 0,7.72zm-11.89 39.34c8.84,6.8 12.38,-6.46 12.67,-14.81 -1.49,-1.02 -3.1,-1.99 -4.89,-2.78 -4.43,4 -7.73,9.25 -7.78,17.59l0 0zm-31.52 -7.04c1.79,0.78 2.32,2.77 4.85,2.77 1.22,-2.92 2.29,-7.76 0.82,-11.17 -4.17,-2.03 -6.11,3.59 -5.67,8.4l0 0zm24.57 11.9c-5.24,0.29 -6.41,11.36 -4.95,17.58 11.8,4.65 13.74,-18.06 4.95,-17.58zm-36.52 30.89c-3.35,5.73 -3.99,18.11 1.41,22.44 6.61,-3.35 11.5,-22.35 -1.41,-22.44zm-24.57 47.01c-3.45,3.4 -3.99,9.51 -9.13,11.17 0.29,3.39 -1.46,5.09 0,7.77 1.26,0.39 2.97,0.35 3.54,1.4 4.96,-1.21 4.76,-8.69 11.94,-5.57 3.45,-2.24 5.4,-5.84 5.59,-11.27 -2.47,-2.63 -7.48,-2.82 -11.94,-3.51l0 0.01zm58.23 21.76c-4.77,1.55 -9.42,6.79 -6.99,13.3 5.34,-0.67 12.76,-8.25 6.99,-13.3zm-111.51 29.43c-2.83,0.09 -3.44,-2.24 -6.36,-2.14 -3.45,0.82 -4.47,3.98 -7.62,4.95 -2.82,0.4 -3.51,-1.26 -6.37,-0.67 -1.74,0.38 -1.55,2.76 -4.27,2.13 -2.97,11.13 -19,10.88 -15.4,26.61 -4.9,-0.43 -8.06,0.79 -10.53,2.82 1.3,4.86 2.85,9.33 7.71,10.54 4.42,-3.1 6.13,-8.84 10.55,-11.94 4.37,1.26 8.2,3.06 11.94,4.9 6.66,-1.55 11.56,-4.76 14.72,-9.85 0.97,2.08 4.51,1.6 6.32,2.86 1.6,2.34 0.68,7.28 2.86,9.04 1.55,0 1.94,1.26 4.18,0.77 4.8,-3.58 -0.92,-8.35 0,-12.67 0.78,-3.99 6.03,-5.69 6.94,-10.45 0.44,-2.03 -0.73,-4.27 -0.63,-6.35 0.54,-8.02 10.83,-14.05 5.59,-22.44 -3.2,-1.12 -4.18,0.49 -6.99,1.41 -2.24,-2.91 -0.68,-9.62 -4.28,-11.27 -4.71,3.84 -4.56,15.06 -8.34,21.76l-0.02 -0.01zm190.82 -14.66c0,2.57 0.38,4.75 2.81,4.85 0.14,-0.54 0.58,-0.77 1.4,-0.68 -0.04,-2.58 0.4,-5.54 -1.4,-6.31 -0.15,1.46 -1.85,1.36 -2.81,2.14l0 0zm-231.57 6.99c1.56,0.78 2.96,1.8 5.64,1.41 2.08,-2.87 2.56,-7.14 0,-9.87 -4.81,-0.19 -6.13,3.22 -5.64,8.46l0 0zm215.44 -4.9c0,2.32 0,4.61 0,6.99 2.18,0.91 2.28,0.15 5,0 1.47,-2 2.14,-4.77 1.99,-8.4 -1.74,-2.53 -5.05,0.09 -6.99,1.41l0 0zm-199.31 6.99c1.84,1.26 3.78,2.42 7.08,2.08 6.31,-10.04 -10.68,-14.62 -7.08,-2.08zm185.96 37.15c1.01,-4.56 8.45,-12.15 2.77,-14.67 -1.13,3.98 -7.73,11.37 -2.77,14.67zm-46.97 -2.04c2.57,0.19 2.53,-4.27 1.46,-5.63 -2.62,-0.19 -2.58,4.27 -1.46,5.63zm48.36 18.89c2.24,-0.63 2.59,-5.88 1.38,-7.67 -0.63,0 -1.38,0 -2.05,0 -1.16,1.89 -1.95,6.36 0.67,7.67zm4.98 11.95c-7.05,0 -7.39,-6.71 -10.6,-10.54 -10.53,4.27 -3.41,26.03 -17.49,26.71 -1.65,3.25 -2.41,7.33 -2.09,12.63 -4.02,2.52 -8.34,4.66 -9.17,10.48 -10.44,3.01 -21.22,4.08 -28.03,11.95 -1.99,-0.58 -1.84,-3.29 -4.86,-2.82 -5.78,2.97 -13.15,4.29 -11.35,14.78 5.13,0.19 10.67,-0.2 17.57,-0.73 2.19,3.39 -1.31,8.11 0.74,11.21 0.57,2.05 2.22,-0.43 3.53,0 0.43,2.63 1.9,4.08 2.77,6.32 5.53,-1.65 8.55,-5.93 12.59,-9.13 2.95,-0.49 3.64,1.12 6.36,0.77 4.12,-2.03 6.88,-5.34 7.73,-10.58 9.94,-4.08 4.32,-23.8 16.8,-25.26 2.53,-0.38 1.74,2.53 4.23,2.15 2.62,-2.82 6.3,-4.47 11.27,-4.96 1.45,-2.72 1.55,-6.85 1.36,-11.27 2.18,0.19 4.3,-3.11 7.08,-4.86 4.9,-3.2 3.3,-3.68 5.53,-9.13 3.41,-8.15 8.8,-13.49 4.23,-20.3 -10.97,-7.18 -16.17,4.38 -18.2,12.59l0 -0.01zm-24.59 -5.58c0.5,-0.79 2.77,-3.26 0.69,-4.23 -1.17,0.82 -3.5,3.54 -0.69,4.23zm-14.76 23.79c8.59,1.36 10.34,-12.62 5.63,-16.12 -2.68,4.57 -6.22,8.25 -5.63,16.12zm-147.3 -0.68c0.43,0.19 1.36,0 1.4,0.69 4.86,-0.06 5.74,-6.47 3.55,-9.81 -6.18,-1.36 -4.95,4.45 -4.95,9.12zm70.13 6.37c4.42,2.66 8.93,3.39 14.03,3.44 2.83,-9.08 -4.42,-10.5 -9.81,-13.31 -1.5,3.15 -3.97,5.39 -4.22,9.87l0 0zm57.54 10.49c4.96,-0.1 6.32,3.54 11.23,3.54 0.72,-1.89 1.4,-3.73 1.36,-6.37 -4.91,-0.92 -5.3,-6.31 -11.21,-6.31 -0.75,2.92 -2.64,6.31 -1.38,9.14zm-74.34 5.59c3.98,3.88 8.1,0.52 11.94,-1.37 0.54,-2.63 -0.92,-3.36 -0.72,-5.64 -5.34,-3.83 -12.54,-1.36 -11.22,7.01zm44.87 -2.05c-3.31,1.21 -13.79,12.63 -14.04,14.72 -0.63,4.89 3.06,12.57 9.87,13.35 2.47,-2.58 0.48,-5.34 0,-8.46 1.98,-9.03 14.31,-7.67 14.08,-18.93 -2.64,-0.43 -6.22,-2.14 -9.92,-0.68l0.01 0zm-21.03 30.12c-2.43,-9.92 -21.22,-0.11 -18.94,11.25 8.44,4.67 20.93,-2.95 18.94,-11.25zm-30.88 12.61c-1.23,2.53 -2.43,5.11 -2.82,8.51 1.5,0.57 2.03,2.08 4.27,2.08 4.56,-0.72 5.25,-13.85 -1.45,-10.59zm26.65 13.32c-5.39,3.79 -4.66,7.77 -9.85,9.18 -7.14,1.99 -11.32,-5.89 -16.09,-5.64 -5.97,0.34 -5.97,6.47 -5.57,15.5 -13.07,8.25 -25.74,16.84 -37.26,26.61 -6.94,-0.88 -9.85,2.28 -16.8,1.46 -8.31,8.54 -17.24,16.46 -28.86,21.76 -0.29,5.73 5.69,8.78 2.09,16.8 2.1,-0.09 1.89,1.94 2.93,2.82 6.7,-4.27 9.85,-7.96 19.52,-4.91 3.98,-8.26 19.47,-3.74 23.9,-9.85 5.47,-7.34 -6.6,-15.55 4.27,-20.3 2.96,2.32 6.22,0.63 9.76,0 1.66,-3.94 3.88,-9.81 8.49,-8.46 0.15,4.56 -2.53,6.41 -2.81,10.49 5.58,4.57 14.58,-1.65 18.22,-5.59 4.8,0.94 9.41,-3.44 11.21,-7.71 -0.34,-3.16 -3.98,-3.12 -3.5,-7.01 3.36,-6.06 9.43,-11.4 19,-9.12 4.9,-2.43 7.77,-13.2 15.4,-8.44 1.11,-6.62 6.49,-8.9 6.3,-16.86 -6.93,-10.54 -13.34,-1.07 -20.34,-0.73l-0.01 0zm-35.8 3.54c0,-7.08 -6.41,-3.75 -10.49,-2.09 -0.92,2.97 -0.29,3.79 0,7.05 2.97,-2.24 8.21,-2.09 10.49,-4.96zm89.17 14.04c-4.7,3.2 -8.88,4.56 -4.94,11.95 3.58,-0.25 7.52,-4.04 10.57,-0.69 2.48,-4.61 4.73,-7.87 3.4,-14.76 -2.62,-4.17 -5.15,0.77 -9.03,3.5l0 0zm-24.61 9.13c3.78,1.36 7.33,-1.99 6.41,-7.67 -4.81,-0.1 -4.81,4.56 -6.41,7.67zm-4.23 5.63c0.1,-1.36 3.6,-5.15 0,-5.63 -1.07,0.92 -2.52,5.19 0,5.63zm-153.61 4.17c1.16,0 2.33,0 3.44,0 -0.86,-3.39 3.54,-1.7 3.59,-4.18 -2.18,-0.29 -3.39,1.08 -4.95,-2.12 -3.2,1.21 -3.88,3.19 -2.09,6.3l0.01 0zm143.13 14.77c-1.51,7.29 -14.1,8.11 -9.14,17.58 10,-3.21 21.47,-7.67 18.94,-21.08 -4.08,0.3 -7.04,1.74 -9.8,3.5zm-24.59 18.95c0.44,-4.38 -3.63,-8.27 -7.71,-10.49 -3.65,1.45 -2.34,7.96 -4.92,10.49 -5.38,1.93 -7.86,-0.88 -11.21,-2.82 -2.13,3 -3.26,11.31 -0.73,14.76 5.97,-6.66 23.65,-1.51 24.57,-11.94l0 0zm-308.73 2.81c2.28,0.1 2.43,-1.8 2.82,-3.5 -1.02,-0.38 -1.75,-1.07 -2.82,-1.4 -0.34,1.59 -1.36,3.54 0,4.9l0 0zm66.64 3.5c3.59,4.02 12.38,3.7 10.54,-4.91 -3.02,-0.73 -6.22,-1.31 -9.09,-2.09 -0.82,2.04 -1.99,3.59 -1.46,7l0.01 0zm18.94 -6.31c0.43,2.56 -1.51,2.66 -1.36,4.86 2.24,-0.31 2.48,1.35 4.96,0.72 -0.35,-2.67 1.26,-3.4 0.63,-6.27 -2.09,-0.48 -2.04,1.22 -4.23,0.69l0 0zm-235.01 9.8c5.19,2.43 10.39,2.39 15.45,1.41 1.06,-7.71 -17.35,-11.5 -15.45,-1.41zm73.72 -4.22c0,1.4 0,2.82 0,4.22 1.74,1.26 3.7,2.39 7,2.14 5.72,-5.29 -1.81,-11.37 -7,-6.35l0 -0.01zm335.34 14.03c4.38,2.87 7.35,-2.24 13.99,0 1.66,-3.29 3.7,-6.12 3.54,-11.21 -8.29,-8.27 -16.55,0.63 -17.53,11.21zm95.44 -4.17c0.96,-1.55 1.79,-3.4 1.36,-6.31 -10.59,-9.04 -14.42,8.84 -1.36,6.31zm-210.58 -4.23c-7,2.97 -12.78,2.58 -20.24,7.04 -0.88,19.83 33.45,7.01 20.24,-7.04zm-198.54 16.86c2.53,2.03 4.76,0.77 7.76,1.4 0.3,-3.45 2.73,-4.71 6.32,-4.9 3.79,-17.58 -20.24,-13.3 -14.08,3.5l0 0zm388.04 -2.14c5.97,-0.19 6.02,-5.88 4.23,-10.49 -6.41,-0.88 -9.47,7.87 -4.23,10.49zm-422.43 -3.5c-1.5,18.65 11.08,3.59 19.72,7.77 3.59,-14.32 -12.87,-15.49 -19.72,-7.77zm148.71 10.5c-4.66,-4.96 -9.71,-9.81 -16.7,-12.63 -3.69,4.96 -8.75,8.64 -12.68,13.31 4.08,0.78 3.21,-0.83 4.86,-1.36 1.21,12.91 19.18,8.93 21.85,20.39 -0.63,1.75 -1.74,2.93 -3.55,3.45 -5.29,-4.8 -21.46,-3.64 -21.07,5.68 1.5,3.31 5.29,2.97 7.72,0.69 3.4,2.72 6.02,7.14 9.86,6.99 2.43,-0.04 4.42,-3.26 7.04,-4.9 0.63,-0.44 1.99,0.38 2.67,0 4.8,-2.77 7.92,-6.47 12,-7.04 1.02,1.84 2.28,3.25 3.54,4.95 2.19,-0.09 3.06,-1.56 5.64,-1.41 0.57,-2.91 -1.12,-3.64 -0.73,-6.32 -12.29,0.29 -8.4,-18.02 4.12,-11.89 1.66,2.42 1.94,6.02 2.92,9.08 10.39,-1.7 10.69,-17.05 4.91,-24.53 -5.73,-0.92 -10.5,-2.66 -11.95,-7.77 -10.93,0.38 -15.4,7.09 -20.45,13.32l0 -0.01zm-45.55 -4.19c-3.79,1.03 -4.08,5.78 -9.13,5.65 0,2.81 0,5.62 0,8.44 8.99,0.09 3.06,13.99 7.04,17.54 1.16,-5.68 4.91,-8.65 9.86,-10.54 0.92,-4.96 2.19,-9.52 2.77,-14.77 -4.03,-1.61 -6.31,-4.86 -10.54,-6.32zm301.06 20.4c3.21,-2.66 7.67,-1.93 7.73,-6.31 0,-5.44 -9.28,-8.06 -11.9,-0.73 -4.18,-1.11 -5.15,0.35 -8.46,1.41 -7.48,-6.5 -18.94,1.17 -25.98,-3.5 -4.52,2.19 -5.15,8.46 -9.12,11.18 -10.21,0.72 -16.08,5.87 -22.5,10.58 -6.74,-2.14 -12.09,0.73 -16.85,4.17 -5.73,-3 -8.54,3.12 -11.16,5.64 -7.73,0.1 -13.11,2.82 -17.53,6.32 -2.14,-0.78 -4.04,-1.61 -7.05,-1.41 -5.1,5.54 -21.86,11.51 -13.31,21.71 5.97,-1.32 8.74,4.32 13.99,4.27 10.64,-0.19 26.23,-25.15 43.57,-17.58 6.99,-5.92 11.27,-17.78 24.52,-13.31 4.19,-3.78 7.67,-8.35 10.5,-13.35 5.57,-0.54 7.14,-5.05 11.94,-6.32 9.32,1.31 10.68,10.4 22.49,9.13 2.04,-1.8 4.67,-8.25 9.12,-11.9l0 0zm-193.67 0.69c5.81,2.52 8.3,-3.12 13.34,-3.54 0,-1.61 0,-3.27 0,-4.92 -5.87,-4.17 -12.58,1.46 -13.34,8.46zm-122.88 0c-6.22,-2.72 -14.08,-8.98 -19.58,-2.82 -0.14,5.34 -1.5,12.92 2.77,15.44 1.8,2.13 2.92,-2.24 5.64,-1.41 2.86,1.61 3.54,5.39 9.17,4.23 2.77,-3.31 3.4,-9.92 2,-15.45l0 0.01zm183.23 6.26c-6.41,-5.59 -15.44,0.15 -23.84,-2.04 -6.32,5.67 -23.8,10.43 -15.44,23.85 4.07,-0.58 8.84,-6.61 12.57,-9.81 11.46,0.88 24.09,0.72 28.13,-9.13 1.01,0.77 1.65,2.04 3.44,2.09 0,-2.57 0,-5.15 0,-7.72 -2.43,0.04 -3.1,1.99 -4.85,2.76l-0.01 0zm-93.28 19.67c-8.16,-4.37 -22.05,-3.22 -28.08,2.14 -4.52,-2.39 -7.62,2.08 -10.54,3.5 -3.92,-3.79 -8.88,-0.4 -13.31,1.4 -7.28,-2.28 -18.26,-4.04 -26.7,-4.23 -1.85,7.87 0.05,17.58 9.13,16.86 3.01,-0.73 3.49,-3.99 6.99,-4.23 1.94,1.16 3.11,3.02 4.86,4.23 5.58,-4.32 16.81,-2.87 20.39,-9.13 3.46,0.77 5.64,6.35 10.59,6.26 3.3,0 7.29,-5.09 11.12,-5.53 3.69,-0.48 7.96,2.81 11.22,2.08 4.77,-1.07 4.42,-5.77 7.04,-7.03 7.92,4.85 25.26,1.83 17.58,-9.13 -4.76,1.16 -11.07,2.33 -15.44,0 -2.1,0.58 -1.89,3.35 -4.86,2.81l0.01 0zm-103.89 14.77c4.62,1.36 4.32,-6.03 1.46,-6.32 -1.51,1.12 -1.65,3.49 -1.46,6.32zm77.85 18.93c2.48,-11.46 -6.02,-10.38 -11.89,-6.99 -6.7,10.1 6.7,15.64 11.89,6.99zm-83.49 0c2.24,-0.33 1.51,2.14 4.24,1.37 1.01,-1.51 1.79,-3.36 1.4,-6.27 -3.15,-3.06 -6.94,-0.44 -5.63,4.9l-0.01 0zm137.54 1.37c-0.67,1.74 -1.64,3.05 -1.4,5.63 3.11,3.1 7.28,1.46 11.9,1.46 1.84,-1.94 1.5,-4.96 0.72,-7.78 -3.87,-2.14 -7.24,-0.48 -11.22,0.69l0 0zm-48.41 0c0.73,5.63 -5.01,9.04 -4.86,14.09 0.29,10.38 18.31,10.67 25.26,4.17 8.25,-0.1 10.43,-2.05 16.76,-1.36 1.84,-3.59 0,-7.38 -1.37,-9.81 -8.29,1.26 -9.23,-4.86 -14.04,-7.09 -7.23,0.87 -13.98,0.29 -21.75,0z"/>
   <path class="fil0" d="M946.08 127.69c-31.44,-7.79 -64.06,-11.39 -97.42,-10.42 -240.36,7.13 -445.6,263.2 -456.14,571.54 -2.97,84.4 -0.49,95.53 4.65,122.81 0,0 -104.36,-215.58 74.12,-530 34.53,-61 251.96,-296.22 490.81,-151.62 0,0 2.82,2.29 -16.03,-2.31l0.01 0z"/>
   <path class="fil0" d="M358 730.37c-9.96,-41.52 -15.6,-85.72 -16.23,-131.76 -4.04,-281.05 177.07,-522.56 404.51,-544.74 114.07,-10.66 185.66,8.96 226.02,64.95 0,0 -0.14,-64.61 -90.53,-101.43 -41.47,-16.92 -102.76,-20.05 -150.11,-15.51 -227.44,22.23 -428.6,229.04 -418.4,560.56 1.89,59.19 12.04,114.85 29.09,165.46 17.92,43.8 27.73,51.57 27.63,50.85 -4.95,-18.7 0.88,6.06 -11.99,-48.38l0.01 0z"/>
   <path class="fil0" d="M66.88 758.2c8.46,31.23 21.08,61.48 38.18,90.33 122.48,206.79 445.93,262.35 720.81,122.29 75.28,-38.27 83.83,-45.75 105.2,-63.52 0,0 -138.07,195.67 -499.6,191.83 -70.08,-0.77 -381.19,-77.08 -370.26,-356.08 0,0 0.68,-3.59 5.68,15.14l-0.01 0.01z"/>
   <path class="fil0" d="M879.01 981.02c-31.48,28.75 -67.51,55.08 -107.48,77.9 -243.95,139.64 -542.93,98 -672.4,-90.14 -64.69,-94.7 -82.08,-166.82 -52.75,-229.23 0,0 -56.39,31.37 -44.81,128.31 5.23,44.49 32.24,99.66 59.15,138.85 129.57,188.2 407.8,264.11 693.04,94.66 50.95,-30.31 94.55,-66.15 130.59,-105.59 29.72,-36.91 31.71,-49.24 31.18,-48.76 -13.93,13.42 4.86,-3.73 -36.51,34l-0.01 0z"/>
   <path class="fil0" d="M1061.12 1238.57c22.05,-23.75 40.99,-50.55 56.3,-80.29 110.24,-213.68 -14.58,-517.21 -279.17,-675.81 -72.46,-43.4 -83.43,-46.65 -109.71,-55.3 0,0 239.14,13.05 427.82,321.37 36.57,59.84 137.16,363.96 -104.95,502.9 0,0 -3.45,1.36 9.71,-12.87l0 0z"/>
   <path class="fil0" d="M818.64 432.13c41.08,11.42 82.47,27.9 123.12,49.63 247.87,132.59 371.32,408.05 280.71,617.76 -45.95,105.01 -97.76,158.03 -166.3,166.3 0,0 56.68,31.18 132.59,-30.12 34.97,-28.17 67.35,-80.23 86.2,-123.84 90.77,-209.8 7.2,-485.91 -287.85,-637.48 -52.69,-27.12 -106.26,-45.12 -158.81,-54.63 -47.01,-5.56 -58.52,-0.79 -57.84,-0.52 18.75,4.71 -5.73,-2.16 48.18,12.9z"/>
   <path class="fil0" d="M2108.72 622.2c4.84,84.74 -53.27,144.06 -138,144.06 -135.59,0 -165.86,-152.53 -165.86,-260.26 0,-102.9 20.6,-280.86 157.38,-280.86 93.21,0 138,70.22 146.48,153.74l184 -25.42c-25.42,-175.53 -146.48,-284.48 -325.63,-284.48 -250.59,0 -360.75,209.43 -360.75,434.6 0,217.88 100.47,420.06 343.79,420.06 96.85,0 164.63,-32.69 226.38,-107.75l27.83 95.64 88.38 0 0 -444.27 -341.37 0 0 154.94 157.37 0zm563.75 -337.73c-187.63,0 -291.74,139.2 -291.74,318.37 0,177.96 102.9,320.8 291.74,320.8 181.59,0 296.59,-139.22 296.59,-314.75 0,-181.58 -104.11,-324.42 -296.59,-324.42l0 0zm1.21 117.42c41.17,0 70.22,15.73 84.74,55.67 16.95,46.02 19.37,104.12 19.37,152.54 0,73.85 -4.83,194.89 -105.31,194.89 -101.7,0 -100.48,-150.1 -100.48,-220.32 0,-70.21 6.05,-182.78 101.69,-182.78l-0.01 0zm636.85 -117.42c-187.63,0 -291.74,139.2 -291.74,318.37 0,177.96 102.9,320.8 291.74,320.8 181.58,0 296.59,-139.22 296.59,-314.75 0,-181.58 -104.11,-324.42 -296.59,-324.42l0 0zm1.21 117.42c41.17,0 70.21,15.73 84.75,55.67 16.94,46.02 19.37,104.12 19.37,152.54 0,73.85 -4.85,194.89 -105.33,194.89 -101.69,0 -100.47,-150.1 -100.47,-220.32 0,-70.21 6.05,-182.78 101.68,-182.78l0 0zm895.19 509.64l0 -830.45 -177.94 0 0 280.86c-38.74,-56.9 -84.75,-77.47 -153.74,-77.47 -179.17,0 -225.17,180.37 -225.17,326.83 0,142.84 48.42,312.33 221.52,312.33 78.68,0 129.53,-42.37 163.42,-107.74l2.43 0 0 95.63 169.47 0 0.01 0.01zm-177.94 -256.64c0,30.27 -1.23,62.95 -15.75,90.79 -14.52,27.84 -44.79,49.63 -77.47,49.63 -88.38,0 -98.05,-112.59 -98.05,-179.16 0,-73.84 3.62,-207 105.31,-207 81.11,0 85.96,101.69 85.96,161l0 84.74 0 0zm891.72 -412.8l0 -161.01 -593.16 0 0 830.45 593.16 0 0 -161.01 -399.48 0 0 -184.01 314.74 0 0 -156.15 -314.74 0 0 -168.27 399.48 0 0 0zm620.75 669.44c-9.69,-30.27 -12.11,-60.54 -12.11,-92l0 -286.9c0,-73.84 6.06,-141.64 -56.9,-192.49 -49.63,-41.15 -131.96,-55.67 -194.89,-55.67 -129.53,0 -274.8,43.57 -292.96,192.47l168.26 15.74c0,-60.53 49.64,-89.58 106.54,-89.58 26.63,0 56.9,8.47 72.62,29.05 18.17,23 15.75,54.48 15.75,81.11l0 14.53c-75.06,7.26 -173.11,12.1 -243.33,38.73 -81.11,30.27 -138.01,92.02 -138.01,182.8 0,116.21 84.76,174.32 193.69,174.32 92.02,0 145.28,-35.11 196.12,-107.74 -1.21,31.47 1.21,64.16 8.47,95.63l176.75 0 0 0zm-193.69 -269.96c0,43.59 1.21,79.89 -24.21,118.63 -20.58,31.47 -53.26,50.84 -89.58,50.84 -49.64,0 -78.69,-32.68 -78.69,-81.1 0,-89.58 124.68,-105.33 192.48,-112.59l0 24.22 0 0zm269.52 -345.01l0 614.96 177.94 0 0 -234.85c0,-108.94 16.96,-219.11 152.53,-211.83l0 -177.96 -30.27 -2.41c-77.47,-6.06 -113.78,61.73 -131.94,127.09l-2.41 0 0 -115 -165.85 0zm784.64 -1.21l-131.94 0 0 -192.48 -154.95 12.11 -15.75 180.37 -107.74 0 0 141.63 100.48 0 0 271.16c0,60.54 0,134.38 49.63,175.53 39.95,32.69 107.74,39.96 158.58,39.96 32.68,0 76.26,-4.85 111.38,-13.32l0 -134.37c-20.59,2.41 -43.59,4.84 -59.33,4.84 -76.25,0 -82.3,-18.16 -82.3,-99.27l0 -244.53 131.94 0 0 -141.64 0 0.01zm596.64 225.16c0,-59.31 3.63,-121.06 -33.9,-169.47 -36.31,-47.21 -96.85,-66.57 -153.74,-66.57 -66.58,0 -136.79,35.09 -159.79,96.84l-2.42 0 0 -300.22 -177.95 0 0 830.44 177.95 0 0 -331.7c0,-36.31 0,-75.04 15.74,-107.73 14.53,-30.27 52.06,-46 84.74,-46 77.47,0 71.42,100.47 71.42,153.73l0 331.7 177.95 0 0 -391.01 0 -0.01z"/>
   <path class="fil0" d="M1645.01 1061.12l0 250.88 14.29 0c4.89,-17.67 4.89,-18.06 7.16,-25.95 7.52,14.66 15.8,29.71 47.01,29.71 63.56,0 70.71,-65.44 70.71,-98.91 0,-26.7 -4.52,-57.93 -24.82,-78.62 -7.91,-7.52 -21.07,-15.41 -39.88,-15.41 -28.58,0 -40.99,18.81 -47.02,28.21l0 -89.9 -27.45 0 0 -0.01zm27.46 143.31c0,-35.36 18.43,-58.68 41.76,-58.68 33.85,0 39.49,32.36 39.49,71.09 0,29.72 -2.26,75.98 -40.25,75.98 -41,0 -41,-45.52 -41,-60.18l0 -28.21 0 0zm174.52 -77.86l0 117.36c0,10.9 0,36.1 6.39,48.89 11.29,23.32 33.86,24.45 42.88,24.45 32.36,0 42.5,-20.69 48.53,-32.73l0 27.45 25.57 0 0 -185.42 -27.46 0 0 84.63c0,28.58 0,83.13 -40.24,83.13 -28.22,0 -28.22,-19.56 -28.22,-50.79l0 -116.96 -27.45 0 0 -0.01zm195.58 0l0 185.43 27.46 0 0 -185.43 -27.46 0zm28.58 -32.72l0 -31.97 -29.7 0 0 31.97 29.7 0zm70.71 -32.72l0 250.87 27.47 0 0 -250.87 -27.47 0zm201.61 0l0 90.65c-4.89,-9.4 -14.68,-28.96 -46.26,-28.96 -38.37,0 -65.82,34.6 -65.82,98.91 0,27.84 6.01,94.03 65.06,94.03 33.1,0 44.76,-20.69 49.65,-29.71l0 25.94 24.82 0 0 -250.87 -27.46 0 0.01 0.01zm0 171.51c0,18.43 -0.76,33.86 -9.78,45.14 -7.15,9.4 -18.43,15.04 -30.1,15.04 -31.97,0 -41.75,-31.96 -41.75,-74.85 0,-34.6 6.77,-72.22 40.26,-72.22 10.52,0 22.18,4.14 30.84,16.19 10.53,14.65 10.53,30.46 10.53,39.86l0 30.84zm99.67 -106.06l0 185.42 27.45 0 0 -185.42 -27.45 0zm28.58 -32.73l0 -31.97 -29.71 0 0 31.97 29.71 0zm70.7 218.15l27.47 0 0 -100.04c0,-52.29 17.67,-67.7 39.87,-67.7 28.59,0 28.59,22.57 28.59,53.41l0 114.33 27.45 0 0 -118.1c0,-20.68 -0.38,-36.48 -5.64,-47.77 -6.77,-15.04 -23.32,-24.82 -44.38,-24.82 -32.72,0 -42.88,22.94 -47.77,33.84l0 -28.58 -25.58 0 0 185.42 -0.01 0.01zm328.74 -214.38c-21.81,-0.38 -37.23,-0.38 -43.62,31.6 -6.4,-3.02 -15.81,-7.91 -30.85,-7.91 -31.97,0 -62.06,25.57 -62.06,63.94 0,28.21 13.53,41.37 21.44,48.89 -15.43,6.78 -24.07,17.31 -24.07,34.24 0,16.93 10.15,24.08 17.29,28.96 -7.52,2.64 -24.44,9.02 -24.44,36.86 0,43.62 50.03,48.52 73.72,48.52 18.05,0 78.62,-3.02 78.62,-53.8 0,-43.62 -32.36,-45.5 -70.72,-47.38 -38.36,-1.88 -48.9,-2.25 -48.9,-18.81 0,-12.04 8.67,-15.04 15.43,-17.31 6.77,1.88 13.17,3.39 22.94,3.39 44.76,0 62.44,-36.1 62.44,-63.57 0,-22.18 -10.16,-36.1 -14.3,-41.74 1.51,-12.04 5.27,-23.32 19.56,-23.32 2.26,0 3.76,0 7.52,0.75l0 -23.32 0 0.01zm-73.35 46.64c22.96,0 32.36,22.57 32.36,41.74 0,27.46 -16.55,41.38 -33.85,41.38 -13.55,0 -33.11,-9.02 -33.11,-41.38 0,-10.53 2.26,-41.74 34.6,-41.74zm-29.33 159.85c51.53,1.51 57.54,1.88 64.31,3.76 13.92,4.12 16.19,14.29 16.19,22.19 0,27.82 -32.73,30.46 -48.52,30.46 -28.21,0 -47.77,-6.4 -47.77,-31.21 0,-15.43 10.15,-21.45 15.79,-25.21l0 0.01zm408.65 -135.79c-3.76,-13.53 -13.53,-47.01 -58.67,-47.01 -42.5,0 -60.56,33.11 -60.56,55.29 0,10.16 3.39,19.56 9.03,27.45 9.03,13.17 21.81,18.07 53.41,27.84 16.56,5.28 36.1,11.29 36.1,31.98 0,13.16 -10.14,30.47 -36.85,30.47 -35.74,0 -40.99,-25.96 -42.87,-35.74l-25.59 5.64c3.01,13.92 10.91,53.04 66.58,53.04 47.01,0 67.33,-30.09 67.33,-56.8 0,-37.23 -33.1,-48.14 -56.81,-55.67 -30.46,-9.02 -43.25,-13.16 -43.25,-31.96 0,-13.54 10.16,-28.59 31.98,-28.59 25.58,0 33.11,22.19 36.11,30.09l24.06 -6.03 0 0zm62.44 -41.74l0 117.35c0,10.9 0,36.1 6.4,48.89 11.29,23.33 33.86,24.45 42.87,24.45 32.35,0 42.51,-20.69 48.52,-32.72l0 27.45 25.58 0 0 -185.43 -27.45 0 0 84.63c0,28.59 0,83.13 -40.26,83.13 -28.2,0 -28.2,-19.56 -28.2,-50.79l0 -116.96 -27.46 0 0 0zm303.16 41.74c-3.75,-13.53 -13.54,-47.01 -58.68,-47.01 -42.5,0 -60.55,33.11 -60.55,55.29 0,10.16 3.38,19.56 9.02,27.45 9.04,13.17 21.81,18.07 53.41,27.84 16.56,5.28 36.12,11.29 36.12,31.98 0,13.16 -10.16,30.47 -36.87,30.47 -35.73,0 -40.99,-25.96 -42.87,-35.74l-25.58 5.64c3.01,13.92 10.91,53.04 66.57,53.04 47.02,0 67.34,-30.09 67.34,-56.8 0,-37.23 -33.1,-48.14 -56.81,-55.67 -30.46,-9.02 -43.25,-13.16 -43.25,-31.96 0,-13.54 10.16,-28.59 31.97,-28.59 25.58,0 33.11,22.19 36.11,30.09l24.08 -6.03 -0.01 0zm65.44 -84.99l0 43.25 -26.69 0 0 22.57 26.69 0 0 93.27c0,44.76 0,74.85 47.02,74.85 10.91,0 18.8,-1.51 25.58,-2.63l0 -23.32c-4.9,1.14 -9.79,1.88 -16.55,1.88 -28.59,0 -28.59,-15.05 -28.59,-50.78l0 -93.27 36.11 0 0 -22.57 -36.11 0 0 -45.89 -27.46 2.64 0 0zm139.92 90.26c2.25,-7.89 7.9,-29.33 36.86,-29.33 34.6,0 34.6,32.72 34.6,45.89l0 7.89c-6.76,-0.75 -13.91,-1.51 -24.44,-1.51 -30.47,0 -53.41,7.15 -67.33,23.71 -9.02,10.89 -13.91,25.94 -13.91,41.37 0,34.22 22.19,55.66 54.54,55.66 33.85,0 45.87,-23.32 53.4,-37.98 0,13.17 0.38,19.18 2.26,32.71l26.32 0c-3,-14.65 -3.38,-22.18 -3.38,-59.42l0 -54.54c0,-21.05 0,-43.62 -11.29,-57.17 -9.4,-11.65 -26.69,-19.56 -48.89,-19.56 -18.42,0 -30.47,5.27 -35.74,7.91 -24.06,12.41 -28.2,30.84 -30.09,39.86l27.09 4.52 0 -0.01zm71.46 46.26c1.13,19.94 1.13,33.85 -7.89,50.78 -7.52,13.16 -19.56,23.7 -38,23.7 -21.44,0 -30.84,-12.79 -30.84,-31.98 0,-30.09 17.31,-44.75 55.29,-44.75 8.65,0 13.17,0.76 21.44,2.25zm99.68 -93.27l0 185.42 27.45 0 0 -185.42 -27.45 0zm28.58 -32.73l0 -31.97 -29.71 0 0 31.97 29.71 0zm70.71 218.15l27.46 0 0 -100.04c0,-52.29 17.68,-67.7 39.86,-67.7 28.6,0 28.6,22.57 28.6,53.41l0 114.33 27.45 0 0 -118.1c0,-20.68 -0.37,-36.48 -5.64,-47.77 -6.77,-15.04 -23.32,-24.82 -44.38,-24.82 -32.73,0 -42.88,22.94 -47.77,33.84l0 -28.58 -25.58 0 0 185.42 0 0.01zm220.04 -138.41c2.25,-7.89 7.89,-29.33 36.85,-29.33 34.61,0 34.61,32.72 34.61,45.89l0 7.89c-6.77,-0.75 -13.92,-1.51 -24.45,-1.51 -30.48,0 -53.41,7.15 -67.33,23.71 -9.03,10.89 -13.92,25.94 -13.92,41.37 0,34.22 22.2,55.66 54.54,55.66 33.85,0 45.89,-23.32 53.41,-37.98 0,13.17 0.38,19.18 2.26,32.71l26.33 0c-3.02,-14.65 -3.39,-22.18 -3.39,-59.42l0 -54.54c0,-21.05 0,-43.62 -11.28,-57.17 -9.41,-11.65 -26.7,-19.56 -48.9,-19.56 -18.43,0 -30.47,5.27 -35.73,7.91 -24.08,12.41 -28.21,30.84 -30.09,39.86l27.08 4.52 0.01 -0.01zm71.46 46.26c1.12,19.94 1.12,33.85 -7.91,50.78 -7.52,13.16 -19.55,23.7 -37.98,23.7 -21.44,0 -30.85,-12.79 -30.85,-31.98 0,-30.09 17.3,-44.75 55.29,-44.75 8.66,0 13.17,0.76 21.45,2.25zm99.67 -158.72l0 250.87 14.29 0c4.88,-17.67 4.88,-18.05 7.15,-25.94 7.53,14.66 15.79,29.71 47.01,29.71 63.56,0 70.71,-65.44 70.71,-98.92 0,-26.7 -4.52,-57.92 -24.83,-78.61 -7.9,-7.52 -21.06,-15.42 -39.86,-15.42 -28.59,0 -41.01,18.81 -47.02,28.21l0 -89.89 -27.45 0 0 -0.01zm27.46 143.31c0,-35.36 18.43,-58.68 41.74,-58.68 33.86,0 39.49,32.35 39.49,71.09 0,29.72 -2.25,75.97 -40.23,75.97 -41,0 -41,-45.51 -41,-60.18l0 -28.2zm174.52 -143.31l0 250.87 27.45 0 0 -250.87 -27.45 0zm228.31 161.73c-1.14,-69.58 -24.45,-101.55 -66.21,-101.55 -39.12,0 -72.22,31.21 -72.22,100.81 0,48.51 17.68,95.15 70.71,95.15 26.71,0 53.41,-10.91 65.08,-54.16l-25.96 -6.02c-4.13,14.29 -11.28,37.24 -37.61,37.24 -43.63,0 -43.26,-55.29 -43.26,-71.48l109.46 0 0.01 0.01zm-107.96 -22.57c2.26,-26.33 10.53,-56.03 38.74,-56.03 29.34,0 37.98,28.21 37.98,56.03l-76.72 0 0 0zm437.99 -16.17c-4.5,-24.45 -12.41,-62.81 -61.31,-62.81 -55.29,0 -69.21,49.65 -69.21,100.05 0,44.38 12.43,95.91 67.34,95.91 52.65,0 59.42,-39.49 63.18,-64.69l-27.82 -3.39c-1.88,17.68 -4.89,45.15 -33.48,45.15 -38.37,0 -38.74,-47.4 -38.74,-68.84 0,-61.67 11.66,-81.24 37.98,-81.24 27.47,0 30.85,22.19 34.24,45.51l27.82 -5.64 0 -0.01zm117.73 -62.81c-62.81,0 -71.85,60.56 -71.85,98.17 0,43.25 13.17,97.79 70.71,97.79 66.21,0 71.48,-67.33 71.48,-100.06 0,-39.1 -12.04,-95.9 -70.34,-95.9l0 0zm-0.75 22.95c39.86,0 40.62,57.91 40.62,75.22 0,21.06 -1.88,74.85 -40.62,74.85 -38.74,0 -40.62,-53.79 -40.62,-74.85 0,-18.81 1.12,-75.22 40.62,-75.22zm133.89 167.74l27.45 0 0 -107.56c0,-14.29 0,-27.08 5.66,-39.13 3.74,-7.52 11.28,-21.05 30.83,-21.05 16.93,0 28.96,6.76 28.96,42.5l0 125.24 27.45 0 0 -109.44c0,-21.82 4.91,-58.3 37.24,-58.3 28.21,0 28.21,26.7 28.21,54.91l0 112.83 27.45 0 0 -114.33c0,-19.56 0,-43.25 -7.89,-55.68 -9.41,-14.66 -25.96,-20.68 -41,-20.68 -34.22,0 -44.01,25.96 -48.9,37.61 -2.63,-12.41 -8.27,-37.61 -44.37,-37.61 -29.72,0 -38.37,18.05 -45.51,33.48l0 -28.21 -25.58 0 0 185.42 0 0zm285.11 0l27.45 0 0 -107.56c0,-14.29 0,-27.08 5.64,-39.13 3.77,-7.52 11.29,-21.05 30.85,-21.05 16.93,0 28.97,6.76 28.97,42.5l0 125.24 27.45 0 0 -109.44c0,-21.82 4.88,-58.3 37.24,-58.3 28.21,0 28.21,26.7 28.21,54.91l0 112.83 27.45 0 0 -114.33c0,-19.56 0,-43.25 -7.9,-55.68 -9.4,-14.66 -25.96,-20.68 -41,-20.68 -34.24,0 -44.01,25.96 -48.9,37.61 -2.63,-12.41 -8.27,-37.61 -44.37,-37.61 -29.72,0 -38.37,18.05 -45.52,33.48l0 -28.21 -25.57 0 0 185.42 0 0zm285.1 -185.42l0 117.35c0,10.9 0,36.1 6.4,48.89 11.28,23.33 33.85,24.45 42.88,24.45 32.34,0 42.5,-20.69 48.52,-32.72l0 27.45 25.58 0 0 -185.43 -27.46 0 0 84.63c0,28.59 0,83.13 -40.25,83.13 -28.21,0 -28.21,-19.56 -28.21,-50.79l0 -116.96 -27.46 0 0 0zm195.58 185.42l27.47 0 0 -100.04c0,-52.29 17.68,-67.7 39.86,-67.7 28.59,0 28.59,22.57 28.59,53.41l0 114.33 27.46 0 0 -118.1c0,-20.68 -0.38,-36.48 -5.64,-47.77 -6.78,-15.04 -23.33,-24.82 -44.38,-24.82 -32.73,0 -42.88,22.94 -47.77,33.84l0 -28.58 -25.59 0 0 185.42 0 0.01zm195.59 -185.42l0 185.42 27.46 0 0 -185.42 -27.46 0zm28.59 -32.73l0 -31.97 -29.72 0 0 31.97 29.72 0zm73.71 -10.52l0 43.25 -26.7 0 0 22.57 26.7 0 0 93.27c0,44.76 0,74.85 47.01,74.85 10.91,0 18.81,-1.51 25.59,-2.63l0 -23.32c-4.9,1.14 -9.79,1.88 -16.56,1.88 -28.58,0 -28.58,-15.05 -28.58,-50.78l0 -93.27 36.1 0 0 -22.57 -36.1 0 0 -45.89 -27.47 2.64 0.01 0zm115.47 43.25l0 185.42 27.45 0 0 -185.42 -27.45 0zm28.59 -32.73l0 -31.97 -29.72 0 0 31.97 29.72 0zm199.72 129.01c-1.13,-69.58 -24.45,-101.55 -66.19,-101.55 -39.13,0 -72.22,31.22 -72.22,100.81 0,48.51 17.67,95.16 70.7,95.16 26.7,0 53.41,-10.91 65.07,-54.17l-25.95 -6.02c-4.14,14.3 -11.28,37.24 -37.61,37.24 -43.64,0 -43.27,-55.29 -43.27,-71.47l109.46 0 0.01 0zm-107.96 -22.57c2.26,-26.32 10.53,-56.03 38.74,-56.03 29.35,0 38,28.21 38,56.03l-76.74 0 0 0zm275.7 -31.97c-3.76,-13.53 -13.54,-47.01 -58.67,-47.01 -42.5,0 -60.55,33.11 -60.55,55.29 0,10.16 3.38,19.57 9.02,27.46 9.03,13.16 21.81,18.06 53.41,27.84 16.56,5.27 36.1,11.28 36.1,31.97 0,13.16 -10.14,30.47 -36.85,30.47 -35.74,0 -40.99,-25.96 -42.87,-35.74l-25.59 5.64c3.02,13.92 10.91,53.04 66.58,53.04 47.01,0 67.33,-30.09 67.33,-56.8 0,-37.22 -33.1,-48.14 -56.81,-55.66 -30.46,-9.02 -43.25,-13.17 -43.25,-31.97 0,-13.54 10.16,-28.58 31.98,-28.58 25.58,0 33.11,22.18 36.11,30.09l24.06 -6.03 0 -0.01z"/>
  </g>
 </g>
</svg>
